<svg width="251" height="64" viewBox="0 0 251 64" fill="none" xmlns="http://www.w3.org/2000/svg">
<path d="M202.433 63.452H161.235C161.052 63.452 160.905 63.5745 160.905 63.726C160.905 63.8772 161.052 64 161.235 64H202.433C202.616 64 202.763 63.8774 202.763 63.726C202.763 63.5747 202.616 63.452 202.433 63.452Z" fill="#1976D2"/>
<path d="M156.755 63.452H112.428C112.246 63.452 112.098 63.5746 112.098 63.726C112.098 63.8773 112.246 64 112.428 64H156.755C156.938 64 157.085 63.8775 157.085 63.726C157.085 63.5747 156.938 63.452 156.755 63.452Z" fill="#1976D2"/>
<path d="M249.594 63.452H240.246C240.063 63.452 239.915 63.5745 239.915 63.726C239.915 63.8772 240.063 64 240.246 64H249.594C249.776 64 249.924 63.8774 249.924 63.726C249.924 63.5747 249.776 63.452 249.594 63.452Z" fill="#1976D2"/>
<path d="M234.324 63.452H216.178C215.996 63.452 215.848 63.5745 215.848 63.726C215.848 63.8772 215.996 64 216.178 64H234.324C234.506 64 234.654 63.8774 234.654 63.726C234.654 63.5747 234.506 63.452 234.324 63.452Z" fill="#1976D2"/>
<path d="M243.654 38.6223C243.44 38.6223 243.224 38.5721 243.033 38.4674L231.022 31.8893L219.012 38.4674C218.761 38.6049 218.459 38.6531 218.163 38.6027C217.867 38.5524 217.612 38.4099 217.447 38.2016C217.281 37.9933 217.223 37.7431 217.284 37.4974C217.344 37.2516 217.516 37.0404 217.767 36.903L230.37 30.0003C230.564 29.8943 230.792 29.8414 231.023 29.8467C231.258 29.8416 231.482 29.8943 231.675 30.0003L244.278 36.903C244.798 37.1877 244.942 37.7704 244.599 38.2018C244.381 38.4743 244.021 38.6223 243.654 38.6223ZM231.022 31.2871C231.086 31.2871 231.149 31.3022 231.204 31.3323L243.397 38.0102C243.613 38.1284 243.905 38.0791 244.047 37.8997C244.19 37.7205 244.13 37.4783 243.914 37.3599L231.311 30.4572C231.23 30.4129 231.135 30.3915 231.036 30.3942C231.027 30.3946 231.018 30.3946 231.009 30.3942C230.91 30.3917 230.815 30.4127 230.734 30.457L218.131 37.3597C218.027 37.4166 217.956 37.5044 217.93 37.6069C217.905 37.7094 217.929 37.8133 217.997 37.8995C218.066 37.9858 218.172 38.0449 218.295 38.0658C218.419 38.0866 218.544 38.0669 218.648 38.01L230.84 31.3322C230.896 31.3023 230.959 31.2871 231.022 31.2871Z" fill="#1976D2"/>
<path d="M202.557 50.9647C202.382 50.9647 202.211 50.9225 202.062 50.8409L193.492 46.1473L184.923 50.8409C184.722 50.9509 184.48 50.9895 184.243 50.9492C184.006 50.909 183.802 50.7948 183.67 50.6281C183.395 50.283 183.51 49.8167 183.926 49.5888L192.972 44.6343C193.127 44.5498 193.308 44.5082 193.492 44.5113C193.678 44.5077 193.857 44.5498 194.012 44.6343L203.058 49.5888C203.474 49.8167 203.589 50.283 203.314 50.6281C203.181 50.7948 202.978 50.9088 202.741 50.9492C202.68 50.9596 202.618 50.9647 202.557 50.9647ZM193.492 45.5451C193.555 45.5451 193.619 45.5602 193.674 45.5904L202.425 50.3835C202.479 50.4129 202.544 50.423 202.608 50.4122C202.673 50.4013 202.728 50.3707 202.763 50.3262C202.799 50.2815 202.811 50.2275 202.798 50.1742C202.785 50.1209 202.748 50.0753 202.694 50.0459L193.648 45.0914C193.595 45.0623 193.541 45.0581 193.505 45.0589C193.496 45.0592 193.487 45.0592 193.479 45.0589C193.442 45.0578 193.389 45.0625 193.336 45.0914L184.29 50.0459C184.236 50.0755 184.199 50.1209 184.186 50.1742C184.173 50.2275 184.185 50.2815 184.221 50.3262C184.256 50.3708 184.311 50.4013 184.375 50.4122C184.44 50.4232 184.505 50.4129 184.558 50.3835L193.31 45.5904C193.365 45.5603 193.429 45.5451 193.492 45.5451Z" fill="#1976D2"/>
<path d="M242.393 46.4758H219.561C219.379 46.4758 219.231 46.3533 219.231 46.2018V37.8381C219.231 37.6868 219.379 37.5641 219.561 37.5641C219.744 37.5641 219.892 37.6868 219.892 37.8381V45.9278H242.063V37.7888C242.063 37.6375 242.211 37.515 242.394 37.515C242.576 37.515 242.724 37.6375 242.724 37.7888V46.2017C242.724 46.3533 242.576 46.4758 242.393 46.4758Z" fill="#1976D2"/>
<path d="M242.393 61.6141H219.561C219.379 61.6141 219.231 61.4915 219.231 61.3401V50.0289C219.231 49.8776 219.379 49.7549 219.561 49.7549C219.744 49.7549 219.892 49.8776 219.892 50.0289V61.0662H242.063V49.9624C242.063 49.8111 242.211 49.6884 242.394 49.6884C242.576 49.6884 242.724 49.8111 242.724 49.9624V61.3401C242.724 61.4915 242.576 61.6141 242.393 61.6141Z" fill="#1976D2"/>
<path d="M230.978 38.0629C229.614 38.0629 228.505 37.1426 228.505 36.0115C228.505 34.8803 229.614 33.9602 230.978 33.9602C232.341 33.9602 233.45 34.8805 233.45 36.0115C233.45 37.1428 232.341 38.0629 230.978 38.0629ZM230.978 34.508C229.978 34.508 229.165 35.1824 229.165 36.0115C229.165 36.8405 229.978 37.5149 230.978 37.5149C231.977 37.5149 232.79 36.8405 232.79 36.0115C232.79 35.1826 231.977 34.508 230.978 34.508Z" fill="#1976D2"/>
<path d="M230.977 38.0629C230.795 38.0629 230.647 37.9402 230.647 37.7889V34.234C230.647 34.0827 230.795 33.96 230.977 33.96C231.159 33.96 231.307 34.0827 231.307 34.234V37.7889C231.307 37.9403 231.159 38.0629 230.977 38.0629Z" fill="#1976D2"/>
<path d="M233.104 36.2855H228.835C228.653 36.2855 228.505 36.1629 228.505 36.0115C228.505 35.8602 228.653 35.7375 228.835 35.7375H233.104C233.286 35.7375 233.434 35.8602 233.434 36.0115C233.434 36.1629 233.286 36.2855 233.104 36.2855Z" fill="#1976D2"/>
<path d="M193.527 51.9127C192.163 51.9127 191.054 50.9925 191.054 49.8613C191.054 48.7302 192.163 47.8101 193.527 47.8101C194.89 47.8101 195.999 48.7303 195.999 49.8613C195.999 50.9925 194.89 51.9127 193.527 51.9127ZM193.527 48.3579C192.528 48.3579 191.715 49.0323 191.715 49.8613C191.715 50.6904 192.528 51.3648 193.527 51.3648C194.526 51.3648 195.339 50.6904 195.339 49.8613C195.339 49.0323 194.526 48.3579 193.527 48.3579Z" fill="#1976D2"/>
<path d="M193.527 51.9128C193.344 51.9128 193.197 51.7901 193.197 51.6388V48.0839C193.197 47.9326 193.344 47.8099 193.527 47.8099C193.709 47.8099 193.857 47.9326 193.857 48.0839V51.6388C193.856 51.7901 193.709 51.9128 193.527 51.9128Z" fill="#1976D2"/>
<path d="M195.653 50.1354H191.384C191.202 50.1354 191.054 50.0127 191.054 49.8614C191.054 49.7101 191.202 49.5874 191.384 49.5874H195.653C195.835 49.5874 195.983 49.7101 195.983 49.8614C195.983 50.0127 195.835 50.1354 195.653 50.1354Z" fill="#1976D2"/>
<path d="M227.174 43.6458H223.328C223.145 43.6458 222.997 43.523 222.997 43.3718V40.1805C222.997 40.0292 223.145 39.9067 223.328 39.9067H227.174C227.357 39.9067 227.504 40.0292 227.504 40.1805V43.3718C227.504 43.523 227.356 43.6458 227.174 43.6458ZM223.658 43.0979H226.844V40.4545H223.658V43.0979Z" fill="#1976D2"/>
<path d="M238.797 43.6458H234.951C234.769 43.6458 234.621 43.523 234.621 43.3718V40.1805C234.621 40.0292 234.769 39.9067 234.951 39.9067H238.797C238.98 39.9067 239.128 40.0292 239.128 40.1805V43.3718C239.128 43.523 238.98 43.6458 238.797 43.6458ZM235.281 43.0979H238.467V40.4545H235.281V43.0979Z" fill="#1976D2"/>
<path d="M244.15 50.2364H217.808C217.7 50.2364 217.599 50.1924 217.537 50.1185C217.475 50.0446 217.461 49.9505 217.499 49.8664L219.199 46.1058C219.247 45.9988 219.37 45.928 219.508 45.928H242.45C242.588 45.928 242.711 45.9988 242.759 46.1058L244.459 49.8664C244.497 49.9505 244.483 50.0446 244.421 50.1185C244.359 50.1924 244.258 50.2364 244.15 50.2364ZM218.285 49.6886H243.673L242.221 46.4758H219.737L218.285 49.6886Z" fill="#1976D2"/>
<path d="M228.54 61.614C228.358 61.614 228.21 61.4915 228.21 61.34V53.9133H223.685V61.34C223.685 61.4913 223.538 61.614 223.355 61.614C223.173 61.614 223.025 61.4915 223.025 61.34V53.6445C223.025 53.4932 223.178 53.3655 223.36 53.3655H228.53C228.717 53.3655 228.87 53.4925 228.87 53.6486V61.3402C228.87 61.4915 228.722 61.614 228.54 61.614Z" fill="#1976D2"/>
<path d="M238.84 56.58H232.13C231.948 56.58 231.8 56.4573 231.8 56.306V52.1364C231.8 51.9851 231.948 51.8624 232.13 51.8624H238.84C239.022 51.8624 239.17 51.9851 239.17 52.1364V56.3062C239.17 56.4573 239.022 56.58 238.84 56.58ZM232.46 56.0322H238.509V52.4102H232.46V56.0322Z" fill="#1976D2"/>
<path d="M238.798 53.2428H232.13C231.948 53.2428 231.8 53.1203 231.8 52.9688C231.8 52.8175 231.948 52.6948 232.13 52.6948H238.798C238.98 52.6948 239.128 52.8174 239.128 52.9688C239.128 53.1201 238.98 53.2428 238.798 53.2428Z" fill="#1976D2"/>
<path d="M227.174 41.2175H223.328C223.145 41.2175 222.997 41.0948 222.997 40.9435C222.997 40.7922 223.145 40.6695 223.328 40.6695H227.174C227.357 40.6695 227.504 40.7922 227.504 40.9435C227.504 41.0948 227.356 41.2175 227.174 41.2175Z" fill="#1976D2"/>
<path d="M238.797 41.2175H234.951C234.769 41.2175 234.621 41.0948 234.621 40.9435C234.621 40.7922 234.769 40.6695 234.951 40.6695H238.797C238.98 40.6695 239.128 40.7922 239.128 40.9435C239.128 41.0948 238.98 41.2175 238.797 41.2175Z" fill="#1976D2"/>
<path d="M161.806 55.2253C161.752 55.2253 161.699 55.2208 161.646 55.2118C161.439 55.1768 161.262 55.0774 161.146 54.9322C160.907 54.6318 161.007 54.226 161.369 54.0275L168.57 50.0836C168.704 50.0102 168.861 49.973 169.021 49.9765C169.183 49.9728 169.338 50.0102 169.472 50.0838L176.672 54.0275C177.034 54.2258 177.134 54.6317 176.895 54.9322C176.78 55.0774 176.603 55.1766 176.396 55.2118C176.19 55.2468 175.98 55.2134 175.805 55.1173L169.021 51.4017L162.237 55.1173C162.107 55.1885 161.958 55.2253 161.806 55.2253ZM169.002 50.5243C168.977 50.5243 168.954 50.53 168.934 50.541L161.733 54.4847C161.676 54.516 161.659 54.5829 161.697 54.6304C161.722 54.6615 161.758 54.6717 161.778 54.675C161.797 54.6784 161.835 54.6808 161.873 54.6603L168.839 50.8449C168.949 50.7845 169.092 50.7845 169.203 50.8449L176.169 54.6601C176.206 54.6807 176.244 54.6782 176.264 54.6749C176.283 54.6717 176.319 54.6614 176.344 54.6302C176.382 54.5827 176.366 54.5159 176.308 54.4844L169.108 50.5407C169.08 50.5258 169.052 50.5235 169.034 50.524C169.025 50.5243 169.016 50.5243 169.007 50.524C169.006 50.5243 169.004 50.5243 169.002 50.5243Z" fill="#1976D2"/>
<path d="M169.047 54.7767C168.371 54.7767 167.821 54.3204 167.821 53.7596C167.821 53.1988 168.371 52.7425 169.047 52.7425C169.723 52.7425 170.273 53.1988 170.273 53.7596C170.273 54.3204 169.723 54.7767 169.047 54.7767ZM169.047 53.2903C168.735 53.2903 168.481 53.5009 168.481 53.7596C168.481 54.0183 168.735 54.2289 169.047 54.2289C169.359 54.2289 169.613 54.0183 169.613 53.7596C169.613 53.5009 169.359 53.2903 169.047 53.2903Z" fill="#1976D2"/>
<path d="M175.419 61.5713H162.674C162.492 61.5713 162.344 61.4486 162.344 61.2973V54.5886C162.344 54.4373 162.492 54.3146 162.674 54.3146C162.857 54.3146 163.005 54.4373 163.005 54.5886V61.0235H175.089V54.5886C175.089 54.4373 175.237 54.3146 175.419 54.3146C175.602 54.3146 175.749 54.4373 175.749 54.5886V61.2973C175.749 61.4486 175.601 61.5713 175.419 61.5713Z" fill="#1976D2"/>
<path d="M173.272 61.3927C173.09 61.3927 172.942 61.27 172.942 61.1187V56.1394H165.1V61.1187C165.1 61.27 164.952 61.3927 164.769 61.3927C164.587 61.3927 164.439 61.27 164.439 61.1187V55.8656C164.439 55.7143 164.587 55.5916 164.769 55.5916H173.272C173.454 55.5916 173.602 55.7143 173.602 55.8656V61.1187C173.602 61.27 173.454 61.3927 173.272 61.3927Z" fill="#1976D2"/>
<path d="M173.272 56.8203H164.769C164.639 56.8203 164.534 56.7327 164.534 56.6246C164.534 56.5165 164.639 56.429 164.769 56.429H173.272C173.402 56.429 173.508 56.5165 173.508 56.6246C173.508 56.7327 173.402 56.8203 173.272 56.8203Z" fill="#1976D2"/>
<path d="M173.272 57.6093H164.769C164.639 57.6093 164.534 57.5218 164.534 57.4137C164.534 57.3056 164.639 57.2181 164.769 57.2181H173.272C173.402 57.2181 173.508 57.3056 173.508 57.4137C173.508 57.5218 173.402 57.6093 173.272 57.6093Z" fill="#1976D2"/>
<path d="M173.272 58.3984H164.769C164.639 58.3984 164.534 58.3108 164.534 58.2028C164.534 58.0947 164.639 58.0071 164.769 58.0071H173.272C173.402 58.0071 173.508 58.0947 173.508 58.2028C173.508 58.3108 173.402 58.3984 173.272 58.3984Z" fill="#1976D2"/>
<path d="M173.272 59.1873H164.769C164.639 59.1873 164.534 59.0997 164.534 58.9916C164.534 58.8836 164.639 58.796 164.769 58.796H173.272C173.402 58.796 173.508 58.8836 173.508 58.9916C173.508 59.0997 173.402 59.1873 173.272 59.1873Z" fill="#1976D2"/>
<path d="M173.272 59.9763H164.769C164.639 59.9763 164.534 59.8888 164.534 59.7807C164.534 59.6726 164.639 59.5851 164.769 59.5851H173.272C173.402 59.5851 173.508 59.6726 173.508 59.7807C173.508 59.8888 173.402 59.9763 173.272 59.9763Z" fill="#1976D2"/>
<path d="M173.272 60.7654H164.769C164.639 60.7654 164.534 60.6779 164.534 60.5698C164.534 60.4617 164.639 60.3741 164.769 60.3741H173.272C173.402 60.3741 173.508 60.4617 173.508 60.5698C173.508 60.6779 173.402 60.7654 173.272 60.7654Z" fill="#1976D2"/>
<path d="M247.375 61.8469C247.193 61.8469 247.045 61.7242 247.045 61.5729V48.4451C247.045 48.2938 247.193 48.1711 247.375 48.1711C247.557 48.1711 247.705 48.2938 247.705 48.4451V61.5729C247.705 61.7242 247.557 61.8469 247.375 61.8469Z" fill="#1976D2"/>
<path d="M247.375 51.1586C247.291 51.1586 247.206 51.1319 247.142 51.0785L245.846 50.0037C245.717 49.8967 245.717 49.7233 245.846 49.6163C245.975 49.5093 246.184 49.5093 246.313 49.6163L247.609 50.6911C247.738 50.798 247.738 50.9715 247.609 51.0785C247.544 51.1319 247.46 51.1586 247.375 51.1586Z" fill="#1976D2"/>
<path d="M247.375 53.1641C247.31 53.1641 247.245 53.1482 247.187 53.1151C247.038 53.0287 247 52.858 247.105 52.7338L248.525 51.0386C248.629 50.9143 248.835 50.8836 248.984 50.97C249.134 51.0564 249.171 51.2272 249.067 51.3513L247.647 53.0465C247.582 53.123 247.48 53.1641 247.375 53.1641Z" fill="#1976D2"/>
<path d="M247.413 56.6942C247.385 56.6942 247.357 56.6913 247.33 56.6856C247.253 56.6689 245.419 56.2527 244.772 54.1374C244.114 51.9849 245.484 44.6507 246.808 43.238C246.944 43.093 247.089 42.9979 247.241 42.954C247.285 42.9359 247.334 42.9258 247.387 42.9258H247.439C247.491 42.9258 247.541 42.9359 247.585 42.954C247.737 42.9981 247.882 43.093 248.018 43.238C249.342 44.6507 250.712 51.9849 250.054 54.1374C249.407 56.2527 247.573 56.6689 247.496 56.6856C247.468 56.6913 247.441 56.6942 247.413 56.6942ZM247.413 43.4924C247.069 43.7036 246.377 45.1747 245.801 48.0046C245.269 50.6153 245.113 53.0257 245.412 54.0026C245.889 55.5632 247.088 56.032 247.413 56.1324C247.745 56.0312 248.935 55.5666 249.414 54.0026C249.712 53.0257 249.556 50.6154 249.025 48.0046C248.449 45.1747 247.757 43.7036 247.413 43.4924Z" fill="#1976D2"/>
<path d="M155.487 62.2086C155.305 62.2086 155.157 62.086 155.157 61.9346V48.8691C155.157 48.7178 155.305 48.5953 155.487 48.5953C155.669 48.5953 155.817 48.7178 155.817 48.8691V61.9346C155.817 62.086 155.669 62.2086 155.487 62.2086Z" fill="#1976D2"/>
<path d="M155.488 51.5712C155.403 51.5712 155.319 51.5443 155.254 51.491L153.964 50.4212C153.835 50.3143 153.835 50.1408 153.964 50.0338C154.093 49.9269 154.302 49.9269 154.431 50.0338L155.721 51.1035C155.85 51.2104 155.85 51.3839 155.721 51.4909C155.657 51.5443 155.572 51.5712 155.488 51.5712Z" fill="#1976D2"/>
<path d="M155.487 53.5671C155.422 53.5671 155.356 53.5512 155.299 53.5181C155.149 53.4317 155.112 53.2609 155.216 53.1368L156.63 51.4496C156.734 51.3253 156.94 51.2946 157.089 51.381C157.239 51.4675 157.276 51.6382 157.172 51.7623L155.759 53.4495C155.694 53.5259 155.592 53.5671 155.487 53.5671Z" fill="#1976D2"/>
<path d="M155.525 57.0804C155.497 57.0804 155.469 57.0775 155.442 57.0717C155.364 57.055 153.539 56.6406 152.895 54.5346C152.239 52.3921 153.603 45.0919 154.922 43.6858C155.057 43.5413 155.202 43.4465 155.353 43.4028C155.397 43.3849 155.447 43.3746 155.499 43.3746H155.55C155.603 43.3746 155.652 43.3847 155.696 43.4028C155.848 43.4467 155.992 43.5413 156.128 43.686C157.446 45.0921 158.81 52.3923 158.154 54.5348C157.51 56.6408 155.685 57.0552 155.607 57.0719C155.58 57.0775 155.552 57.0804 155.525 57.0804ZM155.525 43.943C155.236 44.1357 154.542 45.3817 153.921 48.4329C153.393 51.0302 153.238 53.428 153.535 54.3999C154.011 55.9553 155.194 56.4179 155.525 56.5184C155.855 56.4177 157.038 55.9553 157.514 54.3999C157.812 53.428 157.656 51.0302 157.128 48.4329C156.507 45.3815 155.813 44.1357 155.525 43.943Z" fill="#1976D2"/>
<path d="M200.7 61.5376H186.235C186.053 61.5376 185.905 61.4149 185.905 61.2636V49.8865C185.905 49.7353 186.053 49.6125 186.235 49.6125C186.418 49.6125 186.566 49.7351 186.566 49.8865V60.9897H200.37V49.8865C200.37 49.7353 200.518 49.6125 200.701 49.6125C200.883 49.6125 201.031 49.7351 201.031 49.8865V61.2636C201.031 61.4149 200.883 61.5376 200.7 61.5376Z" fill="#1976D2"/>
<path d="M211.717 50.0111H202.876C202.694 50.0111 202.546 49.8884 202.546 49.7371C202.546 49.5858 202.694 49.4633 202.876 49.4633H211.272L208.486 41.8419H178.567L175.781 49.4633H184.108C184.291 49.4633 184.438 49.5858 184.438 49.7371C184.438 49.8884 184.291 50.0111 184.108 50.0111H175.336C175.232 50.0111 175.133 49.97 175.071 49.9003C175.009 49.8306 174.99 49.7406 175.02 49.6576L178.006 41.4884C178.049 41.3729 178.177 41.2939 178.322 41.2939H208.731C208.877 41.2939 209.005 41.3729 209.047 41.4884L212.033 49.6576C212.064 49.7406 212.045 49.8306 211.982 49.9003C211.92 49.97 211.822 50.0111 211.717 50.0111Z" fill="#1976D2"/>
<path d="M210.253 61.5376H176.64C176.458 61.5376 176.31 61.4149 176.31 61.2636V49.7371C176.31 49.5858 176.458 49.4633 176.64 49.4633C176.822 49.4633 176.97 49.5858 176.97 49.7371V60.9896H209.924L209.983 49.736C209.984 49.5852 210.131 49.4633 210.313 49.4633C210.314 49.4633 210.314 49.4633 210.314 49.4633C210.497 49.4639 210.644 49.5871 210.643 49.7384L210.583 61.2649C210.582 61.4156 210.435 61.5376 210.253 61.5376Z" fill="#1976D2"/>
<path d="M196.083 61.5376C195.901 61.5376 195.753 61.4149 195.753 61.2636V54.2871H191.18V61.1321C191.18 61.2834 191.032 61.4061 190.85 61.4061C190.668 61.4061 190.52 61.2835 190.52 61.1321V54.0131C190.52 53.8618 190.668 53.7391 190.85 53.7391H196.083C196.265 53.7391 196.413 53.8618 196.413 54.0131V61.2636C196.413 61.4149 196.265 61.5376 196.083 61.5376Z" fill="#1976D2"/>
<path d="M183.375 57.3117H179.525C179.343 57.3117 179.195 57.1892 179.195 57.0377V52.2705C179.195 52.1192 179.343 51.9965 179.525 51.9965H183.375C183.557 51.9965 183.705 52.1192 183.705 52.2705V57.0377C183.705 57.189 183.557 57.3117 183.375 57.3117ZM179.855 56.7637H183.044V52.5443H179.855V56.7637Z" fill="#1976D2"/>
<path d="M207.371 57.3117H203.522C203.34 57.3117 203.192 57.1892 203.192 57.0377V52.2705C203.192 52.1192 203.34 51.9965 203.522 51.9965H207.371C207.554 51.9965 207.702 52.1192 207.702 52.2705V57.0377C207.702 57.189 207.554 57.3117 207.371 57.3117ZM203.852 56.7637H207.041V52.5443H203.852V56.7637Z" fill="#1976D2"/>
<path d="M221.581 35.4161C221.399 35.4161 221.251 35.2934 221.251 35.1421V31.205C221.251 31.0537 221.399 30.931 221.581 30.931H224.799C224.981 30.931 225.129 31.0537 225.129 31.205V33.3798C225.129 33.5311 224.981 33.6536 224.799 33.6536C224.616 33.6536 224.469 33.5311 224.469 33.3798V31.479H221.911V35.1423C221.911 35.2934 221.763 35.4161 221.581 35.4161Z" fill="#1976D2"/>
<path d="M224.604 31.4788H221.708C221.169 31.4788 220.731 31.1152 220.731 30.6681V30.657C220.731 30.2099 221.169 29.8463 221.708 29.8463H224.604C225.142 29.8463 225.581 30.2099 225.581 30.657V30.6681C225.581 31.1152 225.142 31.4788 224.604 31.4788ZM221.708 30.3942C221.533 30.3942 221.391 30.5121 221.391 30.6572V30.6682C221.391 30.8133 221.533 30.9311 221.708 30.9311H224.604C224.778 30.9311 224.92 30.8133 224.92 30.6682V30.6572C224.92 30.5121 224.778 30.3942 224.604 30.3942H221.708Z" fill="#1976D2"/>
<path d="M218.112 61.5376H210.682C210.5 61.5376 210.352 61.4149 210.352 61.2636V55.5004C210.352 55.3491 210.5 55.2264 210.682 55.2264H218.112C218.294 55.2264 218.442 55.349 218.442 55.5004V61.2636C218.442 61.4149 218.294 61.5376 218.112 61.5376ZM211.012 60.9896H217.781V55.7743H211.012V60.9896Z" fill="#1976D2"/>
<path d="M211.622 61.5376C211.44 61.5376 211.292 61.4149 211.292 61.2636V55.5004C211.292 55.3491 211.44 55.2264 211.622 55.2264C211.804 55.2264 211.952 55.349 211.952 55.5004V61.2636C211.952 61.4149 211.804 61.5376 211.622 61.5376Z" fill="#1976D2"/>
<path d="M212.718 61.5376C212.536 61.5376 212.388 61.4149 212.388 61.2636V55.5004C212.388 55.3491 212.536 55.2264 212.718 55.2264C212.901 55.2264 213.048 55.349 213.048 55.5004V61.2636C213.048 61.4149 212.9 61.5376 212.718 61.5376Z" fill="#1976D2"/>
<path d="M213.815 61.5376C213.633 61.5376 213.485 61.4149 213.485 61.2636V55.5004C213.485 55.3491 213.633 55.2264 213.815 55.2264C213.997 55.2264 214.145 55.349 214.145 55.5004V61.2636C214.145 61.4149 213.997 61.5376 213.815 61.5376Z" fill="#1976D2"/>
<path d="M214.911 61.5376C214.729 61.5376 214.581 61.4149 214.581 61.2636V55.5004C214.581 55.3491 214.729 55.2264 214.911 55.2264C215.093 55.2264 215.241 55.349 215.241 55.5004V61.2636C215.241 61.4149 215.093 61.5376 214.911 61.5376Z" fill="#1976D2"/>
<path d="M216.008 61.5376C215.826 61.5376 215.678 61.4149 215.678 61.2636V55.5004C215.678 55.3491 215.826 55.2264 216.008 55.2264C216.19 55.2264 216.338 55.349 216.338 55.5004V61.2636C216.338 61.4149 216.19 61.5376 216.008 61.5376Z" fill="#1976D2"/>
<path d="M217.104 61.5376C216.922 61.5376 216.774 61.4149 216.774 61.2636V55.5004C216.774 55.3491 216.922 55.2264 217.104 55.2264C217.286 55.2264 217.434 55.349 217.434 55.5004V61.2636C217.434 61.4149 217.286 61.5376 217.104 61.5376Z" fill="#1976D2"/>
<path d="M159.184 64C159.002 64 158.854 63.8775 158.854 63.726V57.3597C158.854 57.2085 159.002 57.0858 159.184 57.0858C159.366 57.0858 159.514 57.2083 159.514 57.3597V63.726C159.514 63.8773 159.366 64 159.184 64Z" fill="#1976D2"/>
<path d="M159.184 58.7949C159.1 58.7949 159.016 58.7684 158.951 58.7152L158.203 58.0979C158.073 57.9912 158.073 57.8178 158.201 57.7105C158.33 57.6032 158.539 57.6027 158.668 57.7094L159.417 58.3267C159.546 58.4334 159.547 58.6068 159.418 58.7141C159.354 58.7679 159.269 58.7949 159.184 58.7949Z" fill="#1976D2"/>
<path d="M159.184 59.8997C159.12 59.8997 159.056 59.8846 159 59.853C158.849 59.7685 158.808 59.5983 158.91 59.4728L159.807 58.368C159.909 58.2424 160.114 58.2093 160.265 58.2937C160.416 58.3781 160.456 58.5484 160.355 58.6738L159.458 59.7786C159.394 59.8573 159.29 59.8997 159.184 59.8997Z" fill="#1976D2"/>
<path d="M159.184 60.7365C157.507 60.7365 156.142 59.6042 156.142 58.2122C156.142 56.8204 157.507 55.688 159.184 55.688C160.862 55.688 162.227 56.8204 162.227 58.2122C162.227 59.604 160.862 60.7365 159.184 60.7365ZM159.184 56.2358C157.871 56.2358 156.802 57.1224 156.802 58.2122C156.802 59.3019 157.871 60.1886 159.184 60.1886C160.498 60.1886 161.566 59.3021 161.566 58.2122C161.566 57.1225 160.498 56.2358 159.184 56.2358Z" fill="#1976D2"/>
<path d="M127.474 37.4915C127.106 37.4915 126.746 37.3436 126.529 37.0709C126.186 36.6395 126.329 36.0568 126.849 35.772L139.452 28.8693C139.646 28.7633 139.872 28.7102 140.105 28.7158C140.337 28.7102 140.564 28.7632 140.757 28.8693L153.361 35.772C153.88 36.0568 154.024 36.6395 153.681 37.0707C153.338 37.5021 152.635 37.6213 152.115 37.3365L140.105 30.7584L128.094 37.3365C127.903 37.4414 127.687 37.4915 127.474 37.4915ZM127.213 36.2293C126.997 36.3476 126.937 36.5898 127.08 36.7689C127.223 36.948 127.514 36.9978 127.73 36.8794L139.923 30.2016C140.033 30.1412 140.176 30.1412 140.287 30.2016L152.479 36.8794C152.695 36.9978 152.987 36.9481 153.13 36.7689C153.272 36.5897 153.213 36.3476 152.997 36.2293L140.394 29.3266C140.313 29.2821 140.217 29.2611 140.118 29.2636C140.109 29.2639 140.101 29.2639 140.092 29.2636C139.993 29.2604 139.897 29.2821 139.816 29.3266L127.213 36.2293Z" fill="#1976D2"/>
<path d="M151.566 61.6706H128.734C128.551 61.6706 128.404 61.5479 128.404 61.3966V36.6581C128.404 36.5068 128.551 36.3841 128.734 36.3841C128.916 36.3841 129.064 36.5068 129.064 36.6581V61.1226H151.236V36.8028C151.236 36.6515 151.383 36.5288 151.566 36.5288C151.748 36.5288 151.896 36.6515 151.896 36.8028V61.3966C151.896 61.5479 151.748 61.6706 151.566 61.6706Z" fill="#1976D2"/>
<path d="M140.15 36.9321C138.786 36.9321 137.677 36.0118 137.677 34.8809C137.677 33.7497 138.786 32.8296 140.15 32.8296C141.513 32.8296 142.622 33.7499 142.622 34.8809C142.622 36.0118 141.513 36.9321 140.15 36.9321ZM140.15 33.3773C139.15 33.3773 138.337 34.0516 138.337 34.8807C138.337 35.7097 139.15 36.3841 140.15 36.3841C141.149 36.3841 141.962 35.7096 141.962 34.8807C141.962 34.0516 141.149 33.3773 140.15 33.3773Z" fill="#1976D2"/>
<path d="M140.149 36.9321C139.967 36.9321 139.819 36.8095 139.819 36.6583V33.1034C139.819 32.9521 139.967 32.8294 140.149 32.8294C140.332 32.8294 140.479 32.9521 140.479 33.1034V36.6583C140.479 36.8094 140.332 36.9321 140.149 36.9321Z" fill="#1976D2"/>
<path d="M142.292 35.1546H138.024C137.841 35.1546 137.693 35.0321 137.693 34.8806C137.693 34.7293 137.841 34.6066 138.024 34.6066H142.292C142.474 34.6066 142.622 34.7293 142.622 34.8806C142.622 35.0321 142.474 35.1546 142.292 35.1546Z" fill="#1976D2"/>
<path d="M147.989 46.6706H143.707C143.525 46.6706 143.377 46.548 143.377 46.3966V40.4432C143.377 40.292 143.525 40.1693 143.707 40.1693H147.989C148.171 40.1693 148.319 40.292 148.319 40.4432V46.3966C148.319 46.548 148.171 46.6706 147.989 46.6706ZM144.038 46.1228H147.659V40.7174H144.038V46.1228Z" fill="#1976D2"/>
<path d="M147.989 43.594H143.707C143.525 43.594 143.377 43.4713 143.377 43.32C143.377 43.1687 143.525 43.046 143.707 43.046H147.989C148.171 43.046 148.319 43.1687 148.319 43.32C148.319 43.4713 148.171 43.594 147.989 43.594Z" fill="#1976D2"/>
<path d="M142.29 46.6706H138.009C137.827 46.6706 137.679 46.548 137.679 46.3966V40.4432C137.679 40.292 137.827 40.1693 138.009 40.1693H142.29C142.473 40.1693 142.621 40.292 142.621 40.4432V46.3966C142.621 46.548 142.473 46.6706 142.29 46.6706ZM138.339 46.1228H141.96V40.7174H138.339V46.1228Z" fill="#1976D2"/>
<path d="M142.29 43.594H138.009C137.827 43.594 137.679 43.4713 137.679 43.32C137.679 43.1687 137.827 43.046 138.009 43.046H142.29C142.473 43.046 142.621 43.1687 142.621 43.32C142.621 43.4713 142.473 43.594 142.29 43.594Z" fill="#1976D2"/>
<path d="M147.899 55.7693H143.617C143.435 55.7693 143.287 55.6466 143.287 55.4953V49.5419C143.287 49.3906 143.435 49.2679 143.617 49.2679H147.899C148.081 49.2679 148.229 49.3906 148.229 49.5419V55.4953C148.229 55.6466 148.081 55.7693 147.899 55.7693ZM143.947 55.2215H147.568V49.8161H143.947V55.2215Z" fill="#1976D2"/>
<path d="M147.899 52.6925H143.617C143.435 52.6925 143.287 52.5698 143.287 52.4185C143.287 52.2672 143.435 52.1445 143.617 52.1445H147.899C148.081 52.1445 148.229 52.2672 148.229 52.4185C148.229 52.5698 148.081 52.6925 147.899 52.6925Z" fill="#1976D2"/>
<path d="M142.2 55.7693H137.919C137.736 55.7693 137.588 55.6466 137.588 55.4953V49.5419C137.588 49.3906 137.736 49.2679 137.919 49.2679H142.2C142.382 49.2679 142.53 49.3906 142.53 49.5419V55.4953C142.53 55.6466 142.382 55.7693 142.2 55.7693ZM138.249 55.2215H141.87V49.8161H138.249V55.2215Z" fill="#1976D2"/>
<path d="M142.2 52.6925H137.919C137.736 52.6925 137.588 52.5698 137.588 52.4185C137.588 52.2672 137.736 52.1445 137.919 52.1445H142.2C142.382 52.1445 142.53 52.2672 142.53 52.4185C142.53 52.5698 142.382 52.6925 142.2 52.6925Z" fill="#1976D2"/>
<path d="M136.637 46.6706H132.356C132.173 46.6706 132.026 46.548 132.026 46.3966V40.4432C132.026 40.292 132.173 40.1693 132.356 40.1693H136.637C136.82 40.1693 136.967 40.292 136.967 40.4432V46.3966C136.967 46.548 136.819 46.6706 136.637 46.6706ZM132.686 46.1228H136.307V40.7174H132.686V46.1228Z" fill="#1976D2"/>
<path d="M136.637 43.594H132.356C132.173 43.594 132.026 43.4713 132.026 43.32C132.026 43.1687 132.173 43.046 132.356 43.046H136.637C136.82 43.046 136.967 43.1687 136.967 43.32C136.967 43.4713 136.819 43.594 136.637 43.594Z" fill="#1976D2"/>
<path d="M136.547 55.7693H132.265C132.083 55.7693 131.935 55.6466 131.935 55.4953V49.5419C131.935 49.3906 132.083 49.2679 132.265 49.2679H136.547C136.729 49.2679 136.877 49.3906 136.877 49.5419V55.4953C136.877 55.6466 136.729 55.7693 136.547 55.7693ZM132.595 55.2215H136.217V49.8161H132.595V55.2215Z" fill="#1976D2"/>
<path d="M136.547 52.6925H132.265C132.083 52.6925 131.935 52.5698 131.935 52.4185C131.935 52.2672 132.083 52.1445 132.265 52.1445H136.547C136.729 52.1445 136.877 52.2672 136.877 52.4185C136.877 52.5698 136.729 52.6925 136.547 52.6925Z" fill="#1976D2"/>
<path d="M128.734 38.4161H112.125C111.996 38.4161 111.878 38.3536 111.824 38.2561C111.771 38.1586 111.79 38.0443 111.875 37.963L120.489 29.6839C120.551 29.6237 120.643 29.589 120.739 29.589H138.237C138.42 29.589 138.568 29.7115 138.568 29.863C138.568 30.0143 138.42 30.137 138.237 30.137H120.89L112.846 37.8682H128.734C128.916 37.8682 129.064 37.9909 129.064 38.1422C129.064 38.2934 128.916 38.4161 128.734 38.4161Z" fill="#1976D2"/>
<path d="M128.734 61.6706H112.912C112.729 61.6706 112.582 61.5479 112.582 61.3966V38.1421C112.582 37.9908 112.729 37.8681 112.912 37.8681C113.094 37.8681 113.242 37.9908 113.242 38.1421V61.1226H128.734C128.916 61.1226 129.064 61.2451 129.064 61.3966C129.064 61.548 128.916 61.6706 128.734 61.6706Z" fill="#1976D2"/>
<path d="M124.257 61.6706C124.075 61.6706 123.927 61.5479 123.927 61.3966V52.0849H117.651V61.3967C117.651 61.548 117.504 61.6707 117.321 61.6707C117.139 61.6707 116.991 61.548 116.991 61.3967V51.8111C116.991 51.6598 117.139 51.5371 117.321 51.5371H124.257C124.439 51.5371 124.587 51.6598 124.587 51.8111V61.3967C124.587 61.5479 124.439 61.6706 124.257 61.6706Z" fill="#1976D2"/>
<path d="M126.05 44.5993H115.738C115.556 44.5993 115.408 44.4766 115.408 44.3253V40.4434C115.408 40.2921 115.556 40.1694 115.738 40.1694H126.05C126.232 40.1694 126.38 40.2921 126.38 40.4434V44.3253C126.38 44.4767 126.232 44.5993 126.05 44.5993ZM116.068 44.0514H125.72V40.7174H116.068V44.0514Z" fill="#1976D2"/>
<path d="M126.05 41.453H115.738C115.556 41.453 115.408 41.3304 115.408 41.179C115.408 41.0277 115.556 40.905 115.738 40.905H126.05C126.232 40.905 126.38 41.0277 126.38 41.179C126.38 41.3304 126.232 41.453 126.05 41.453Z" fill="#1976D2"/>
<path d="M120.894 44.5992C120.712 44.5992 120.564 44.4765 120.564 44.3252V41.2398C120.564 41.0885 120.712 40.9658 120.894 40.9658C121.076 40.9658 121.224 41.0884 121.224 41.2398V44.3252C121.224 44.4767 121.076 44.5992 120.894 44.5992Z" fill="#1976D2"/>
<path d="M180.61 19.4437H173.756C171.857 19.4437 170.311 18.1614 170.311 16.5853C170.311 15.1253 171.622 13.9185 173.34 13.7479C173.693 12.4883 175.073 11.5634 176.654 11.5634C178.271 11.5634 179.638 12.4947 179.976 13.7755C180.185 13.7433 180.397 13.7269 180.61 13.7269C182.51 13.7269 184.055 15.0092 184.055 16.5852C184.055 18.1614 182.51 19.4437 180.61 19.4437ZM176.654 12.1112C175.308 12.1112 174.143 12.9423 173.944 14.0444L173.903 14.2675L173.632 14.2774C172.14 14.332 170.971 15.3456 170.971 16.5853C170.971 17.8593 172.221 18.8958 173.756 18.8958H180.61C182.145 18.8958 183.395 17.8593 183.395 16.5853C183.395 15.3114 182.146 14.2749 180.61 14.2749C180.336 14.2749 180.065 14.3081 179.803 14.3736L179.422 14.4692L179.379 14.1406C179.23 12.9836 178.058 12.1112 176.654 12.1112Z" fill="#1976D2"/>
<path d="M203.433 25.6091H196.58C194.68 25.6091 193.134 24.3269 193.134 22.7508C193.134 21.1748 194.68 19.8925 196.58 19.8925C196.793 19.8925 197.005 19.9089 197.213 19.9412C197.551 18.6605 198.919 17.729 200.535 17.729C202.116 17.729 203.497 18.6539 203.85 19.9136C205.568 20.0841 206.878 21.2909 206.878 22.751C206.878 24.3269 205.333 25.6091 203.433 25.6091ZM196.58 20.4402C195.044 20.4402 193.795 21.4767 193.795 22.7507C193.795 24.0246 195.044 25.0612 196.58 25.0612H203.433C204.969 25.0612 206.218 24.0246 206.218 22.7507C206.218 21.5111 205.05 20.4974 203.558 20.4428L203.286 20.4328L203.246 20.2097C203.047 19.1076 201.881 18.2765 200.535 18.2765C199.131 18.2765 197.959 19.1489 197.81 20.3058L197.768 20.6345L197.386 20.5388C197.125 20.4734 196.853 20.4402 196.58 20.4402Z" fill="#1976D2"/>
<path d="M232.596 6.28711C232.562 8.11159 230.807 9.56813 228.608 9.59592C226.408 9.6237 224.652 8.06951 224.619 6.28711C224.586 4.46246 226.459 3.0056 228.608 2.9783C230.807 2.95052 232.563 4.5047 232.596 6.28711C232.601 6.53926 233.072 6.53958 233.068 6.28711C233.037 4.59111 231.671 3.1312 229.692 2.69708C227.709 2.26232 225.617 3.09731 224.657 4.56878C223.68 6.06788 224.168 7.9603 225.678 9.07635C227.21 10.2089 229.543 10.2628 231.202 9.29638C232.38 8.60979 233.046 7.46965 233.068 6.28711C233.073 6.03463 232.601 6.03512 232.596 6.28711Z" fill="#1976D2"/>
<path d="M222.706 2.62093C223.345 3.04638 223.983 3.47166 224.622 3.89711C224.856 4.05354 225.192 3.77842 224.955 3.62038C224.317 3.19494 223.678 2.76965 223.04 2.34421C222.805 2.18778 222.469 2.46289 222.706 2.62093Z" fill="#1976D2"/>
<path d="M226.732 2.49467C226.364 1.89385 225.996 1.29302 225.628 0.69219C225.49 0.467181 225.083 0.66521 225.221 0.889738C225.589 1.49057 225.957 2.09139 226.325 2.69222C226.462 2.91723 226.869 2.71904 226.732 2.49467Z" fill="#1976D2"/>
<path d="M221.518 7.82144C222.327 7.66822 223.136 7.515 223.945 7.36179C224.242 7.30557 224.116 6.92831 223.82 6.98436C223.011 7.13758 222.202 7.2908 221.392 7.44401C221.096 7.50023 221.222 7.87749 221.518 7.82144Z" fill="#1976D2"/>
<path d="M223.935 5.19227C223.129 5.03969 222.324 4.88712 221.518 4.73454C221.222 4.67849 221.096 5.05575 221.392 5.11197C222.198 5.26454 223.004 5.41712 223.81 5.56969C224.106 5.62575 224.232 5.24848 223.935 5.19227Z" fill="#1976D2"/>
<path d="M228.374 0.189234C228.374 0.896383 228.374 1.60369 228.374 2.31084C228.374 2.56315 228.846 2.56315 228.846 2.31084C228.846 1.60369 228.846 0.896383 228.846 0.189234C228.845 -0.0630781 228.374 -0.0630781 228.374 0.189234Z" fill="#1976D2"/>
<path d="M230.952 2.69229C231.301 2.09146 231.649 1.49063 231.998 0.889807C232.13 0.663513 231.723 0.465002 231.591 0.69226C231.242 1.29309 230.894 1.89392 230.545 2.49474C230.413 2.72104 230.82 2.91955 230.952 2.69229Z" fill="#1976D2"/>
<path d="M223.04 10.2117C223.678 9.78929 224.317 9.36674 224.955 8.94434C225.193 8.78695 224.857 8.51199 224.622 8.66762C223.983 9.09001 223.345 9.51257 222.706 9.93496C222.468 10.0922 222.805 10.3673 223.04 10.2117Z" fill="#1976D2"/>
<path d="M235.827 7.44401C235.018 7.2908 234.209 7.13758 233.399 6.98436C233.103 6.92831 232.978 7.30557 233.274 7.36179C234.083 7.515 234.892 7.66822 235.701 7.82144C235.998 7.87749 236.123 7.50023 235.827 7.44401Z" fill="#1976D2"/>
<path d="M232.16 8.87586C232.833 9.32122 233.506 9.76658 234.18 10.2118C234.415 10.3674 234.751 10.0925 234.513 9.93506C233.84 9.4897 233.167 9.0445 232.494 8.59914C232.259 8.44351 231.922 8.71847 232.16 8.87586Z" fill="#1976D2"/>
<path d="M233.399 5.5715C234.208 5.41828 235.017 5.26507 235.827 5.11185C236.123 5.05563 235.997 4.67837 235.701 4.73442C234.892 4.88764 234.083 5.04086 233.274 5.19408C232.977 5.25029 233.103 5.62755 233.399 5.5715Z" fill="#1976D2"/>
<path d="M234.179 2.34425C233.537 2.7697 232.893 3.19498 232.251 3.62043C232.013 3.77782 232.349 4.05278 232.584 3.89715C233.227 3.47171 233.87 3.04642 234.513 2.62098C234.751 2.46358 234.415 2.18863 234.179 2.34425Z" fill="#1976D2"/>
<path d="M231.998 11.666C231.63 11.0321 231.262 10.3982 230.894 9.76428C230.762 9.53702 230.356 9.73553 230.487 9.96183C230.855 10.5957 231.223 11.2297 231.591 11.8636C231.723 12.0908 232.13 11.8923 231.998 11.666Z" fill="#1976D2"/>
<path d="M228.374 10.2689C228.374 10.9682 228.374 11.6673 228.374 12.3666C228.374 12.6189 228.846 12.6189 228.846 12.3666C228.846 11.6673 228.846 10.9682 228.846 10.2689C228.845 10.0166 228.374 10.0166 228.374 10.2689Z" fill="#1976D2"/>
<path d="M225.628 11.8635C225.996 11.2593 226.364 10.6553 226.732 10.0511C226.869 9.82641 226.462 9.62838 226.325 9.85355C225.957 10.4577 225.589 11.0618 225.221 11.666C225.084 11.8907 225.491 12.0889 225.628 11.8635Z" fill="#1976D2"/>
<path d="M141.019 17.2604H134.498C132.682 17.2604 131.204 16.0345 131.204 14.5275C131.204 13.0205 132.682 11.7946 134.498 11.7946C134.697 11.7946 134.895 11.8094 135.089 11.8388C135.418 10.6206 136.722 9.73615 138.262 9.73615C139.77 9.73615 141.087 10.6161 141.428 11.8158C143.066 11.9829 144.313 13.1347 144.313 14.5275C144.314 16.0343 142.836 17.2604 141.019 17.2604ZM134.498 12.3423C133.046 12.3423 131.865 13.3225 131.865 14.5273C131.865 15.7322 133.046 16.7124 134.498 16.7124H141.019C142.472 16.7124 143.653 15.7322 143.653 14.5273C143.653 13.3551 142.548 12.3964 141.138 12.3449L140.866 12.3349L140.826 12.1118C140.637 11.0697 139.535 10.2837 138.262 10.2837C136.934 10.2837 135.826 11.1087 135.685 12.2026L135.643 12.5313L135.262 12.4358C135.014 12.3738 134.758 12.3423 134.498 12.3423Z" fill="#1976D2"/>
<path d="M57.7904 63.452H16.592C16.4096 63.452 16.2617 63.5745 16.2617 63.726C16.2617 63.8772 16.4096 64 16.592 64H57.7904C57.9727 64 58.1206 63.8774 58.1206 63.726C58.1206 63.5747 57.9727 63.452 57.7904 63.452Z" fill="#1976D2"/>
<path d="M44.6572 63.452H0.330263C0.147903 63.452 0 63.5746 0 63.726C0 63.8773 0.147903 64 0.330263 64H44.657C44.8394 64 44.9873 63.8775 44.9873 63.726C44.9873 63.5747 44.8394 63.452 44.6572 63.452Z" fill="#1976D2"/>
<path d="M104.951 63.452H95.6027C95.4204 63.452 95.2725 63.5745 95.2725 63.726C95.2725 63.8772 95.4204 64 95.6027 64H104.951C105.134 64 105.282 63.8774 105.282 63.726C105.282 63.5747 105.134 63.452 104.951 63.452Z" fill="#1976D2"/>
<path d="M113.389 63.452H104.04C103.858 63.452 103.71 63.5745 103.71 63.726C103.71 63.8772 103.858 64 104.04 64H113.389C113.571 64 113.719 63.8774 113.719 63.726C113.719 63.5747 113.571 63.452 113.389 63.452Z" fill="#1976D2"/>
<path d="M89.6807 63.452H71.5353C71.353 63.452 71.2051 63.5745 71.2051 63.726C71.2051 63.8772 71.353 64 71.5353 64H89.6807C89.8631 64 90.011 63.8774 90.011 63.726C90.0108 63.5747 89.8629 63.452 89.6807 63.452Z" fill="#1976D2"/>
<path d="M99.0109 38.6223C98.7973 38.6223 98.5813 38.5721 98.3902 38.4674L86.3796 31.8893L74.3691 38.4674C74.118 38.6049 73.8164 38.6531 73.5202 38.6027C73.2238 38.5524 72.9694 38.4099 72.8037 38.2016C72.6378 37.9933 72.5799 37.7431 72.6407 37.4974C72.7013 37.2516 72.873 37.0404 73.1243 36.903L85.7273 30.0003C85.9208 29.8943 86.1487 29.8414 86.3798 29.8467C86.6156 29.8416 86.8388 29.8943 87.0324 30.0003L99.6354 36.903C100.155 37.1877 100.299 37.7704 99.9558 38.2018C99.7386 38.4743 99.3781 38.6223 99.0109 38.6223ZM86.3796 31.2871C86.4429 31.2871 86.5064 31.3022 86.5616 31.3323L98.754 38.0102C98.9698 38.1284 99.2618 38.0791 99.4044 37.8997C99.5471 37.7205 99.4873 37.4783 99.2712 37.3599L86.6683 30.4572C86.5874 30.4129 86.4919 30.3915 86.3928 30.3942C86.3841 30.3946 86.3754 30.3946 86.3665 30.3942C86.2672 30.3917 86.1721 30.4127 86.091 30.457L73.488 37.3597C73.3841 37.4166 73.3128 37.5044 73.2875 37.6069C73.2623 37.7094 73.2861 37.8133 73.3547 37.8995C73.4232 37.9858 73.5291 38.0449 73.6526 38.0658C73.7761 38.0866 73.9014 38.0669 74.0053 38.01L86.1977 31.3322C86.2528 31.3023 86.3161 31.2871 86.3796 31.2871Z" fill="#1976D2"/>
<path d="M57.9141 50.9647C57.7389 50.9647 57.5678 50.9225 57.4189 50.8409L48.8494 46.1473L40.2798 50.8409C40.0789 50.9509 39.8377 50.9895 39.6003 50.9492C39.3634 50.909 39.1597 50.7948 39.0269 50.6281C38.7522 50.283 38.8672 49.8167 39.2832 49.5888L48.3294 44.6343C48.4839 44.5498 48.6655 44.5082 48.8492 44.5113C49.0348 44.5077 49.2147 44.5498 49.369 44.6343L58.4151 49.5888C58.8312 49.8167 58.9462 50.283 58.6715 50.6281C58.5387 50.7948 58.3352 50.9088 58.0981 50.9492C58.0369 50.9596 57.9751 50.9647 57.9141 50.9647ZM48.8492 45.5451C48.9127 45.5451 48.976 45.5602 49.0312 45.5904L57.7827 50.3835C57.8363 50.4129 57.9014 50.423 57.9656 50.4122C58.0299 50.4013 58.0849 50.3707 58.1203 50.3262C58.1559 50.2815 58.1681 50.2275 58.155 50.1742C58.1418 50.1209 58.105 50.0753 58.051 50.0459L49.0048 45.0914C48.952 45.0623 48.898 45.0581 48.8622 45.0589C48.8534 45.0592 48.8447 45.0592 48.836 45.0589C48.7996 45.0578 48.7462 45.0625 48.6932 45.0914L39.6472 50.0459C39.5934 50.0755 39.5564 50.1209 39.5432 50.1742C39.5301 50.2275 39.5425 50.2815 39.5779 50.3262C39.6135 50.3708 39.6683 50.4013 39.7326 50.4122C39.7968 50.4232 39.8619 50.4129 39.9155 50.3835L48.667 45.5904C48.7224 45.5603 48.7859 45.5451 48.8492 45.5451Z" fill="#1976D2"/>
<path d="M97.7506 46.4758H74.9186C74.7363 46.4758 74.5884 46.3533 74.5884 46.2018V37.8381C74.5884 37.6868 74.7363 37.5641 74.9186 37.5641C75.101 37.5641 75.2489 37.6868 75.2489 37.8381V45.9278H97.4205V37.7888C97.4205 37.6375 97.5684 37.515 97.7508 37.515C97.9331 37.515 98.081 37.6375 98.081 37.7888V46.2017C98.0808 46.3533 97.9329 46.4758 97.7506 46.4758Z" fill="#1976D2"/>
<path d="M97.7506 61.614H74.9186C74.7363 61.614 74.5884 61.4915 74.5884 61.34V50.0288C74.5884 49.8775 74.7363 49.7548 74.9186 49.7548C75.101 49.7548 75.2489 49.8775 75.2489 50.0288V61.0662H97.4205V49.9623C97.4205 49.8111 97.5684 49.6884 97.7508 49.6884C97.9331 49.6884 98.081 49.8111 98.081 49.9623V61.34C98.0808 61.4915 97.9329 61.614 97.7506 61.614Z" fill="#1976D2"/>
<path d="M86.3348 38.0629C84.9714 38.0629 83.8623 37.1426 83.8623 36.0115C83.8623 34.8803 84.9716 33.9602 86.3348 33.9602C87.6983 33.9602 88.8075 34.8805 88.8075 36.0115C88.8073 37.1428 87.6983 38.0629 86.3348 38.0629ZM86.3348 34.508C85.3355 34.508 84.5226 35.1824 84.5226 36.0115C84.5226 36.8405 85.3355 37.5149 86.3348 37.5149C87.3341 37.5149 88.1472 36.8405 88.1472 36.0115C88.147 35.1826 87.3339 34.508 86.3348 34.508Z" fill="#1976D2"/>
<path d="M86.3345 38.0629C86.1523 38.0629 86.0045 37.9402 86.0045 37.7889V34.234C86.0045 34.0827 86.1523 33.96 86.3345 33.96C86.5167 33.96 86.6645 34.0827 86.6645 34.234V37.7889C86.6643 37.9403 86.5165 38.0629 86.3345 38.0629Z" fill="#1976D2"/>
<path d="M88.4607 36.2855H84.1923C84.01 36.2855 83.8621 36.1629 83.8621 36.0115C83.8621 35.8602 84.01 35.7375 84.1923 35.7375H88.4607C88.6431 35.7375 88.791 35.8602 88.791 36.0115C88.7908 36.1629 88.6429 36.2855 88.4607 36.2855Z" fill="#1976D2"/>
<path d="M48.8841 51.9127C47.5206 51.9127 46.4114 50.9925 46.4114 49.8613C46.4114 48.7302 47.5206 47.8101 48.8841 47.8101C50.2475 47.8101 51.3566 48.7303 51.3566 49.8613C51.3566 50.9925 50.2473 51.9127 48.8841 51.9127ZM48.8841 48.3579C47.8848 48.3579 47.0717 49.0323 47.0717 49.8613C47.0717 50.6904 47.8848 51.3648 48.8841 51.3648C49.8834 51.3648 50.6962 50.6904 50.6962 49.8613C50.6962 49.0323 49.8832 48.3579 48.8841 48.3579Z" fill="#1976D2"/>
<path d="M48.8837 51.9128C48.7015 51.9128 48.5537 51.7901 48.5537 51.6388V48.0839C48.5537 47.9326 48.7015 47.8099 48.8837 47.8099C49.0659 47.8099 49.2137 47.9326 49.2137 48.0839V51.6388C49.2135 51.7901 49.0657 51.9128 48.8837 51.9128Z" fill="#1976D2"/>
<path d="M51.0098 50.1353H46.7414C46.559 50.1353 46.4111 50.0126 46.4111 49.8613C46.4111 49.71 46.559 49.5873 46.7414 49.5873H51.0098C51.1922 49.5873 51.3401 49.71 51.3401 49.8613C51.3401 50.0126 51.1922 50.1353 51.0098 50.1353Z" fill="#1976D2"/>
<path d="M82.5313 43.6457H78.6848C78.5024 43.6457 78.3545 43.523 78.3545 43.3717V40.1804C78.3545 40.0292 78.5024 39.9066 78.6848 39.9066H82.5313C82.7137 39.9066 82.8616 40.0292 82.8616 40.1804V43.3717C82.8614 43.523 82.7135 43.6457 82.5313 43.6457ZM79.0148 43.0979H82.2011V40.4544H79.0148V43.0979Z" fill="#1976D2"/>
<path d="M94.1548 43.6457H90.3082C90.1258 43.6457 89.9779 43.523 89.9779 43.3717V40.1804C89.9779 40.0292 90.1258 39.9066 90.3082 39.9066H94.1548C94.3371 39.9066 94.485 40.0292 94.485 40.1804V43.3717C94.485 43.523 94.3371 43.6457 94.1548 43.6457ZM90.6384 43.0979H93.8247V40.4544H90.6384V43.0979Z" fill="#1976D2"/>
<path d="M99.5066 50.2364H73.1653C73.0571 50.2364 72.9556 50.1924 72.8939 50.1185C72.8323 50.0446 72.818 49.9505 72.8561 49.8664L74.5556 46.1058C74.604 45.9988 74.7272 45.928 74.8648 45.928H97.8073C97.9449 45.928 98.068 45.9988 98.1164 46.1058L99.8159 49.8664C99.8541 49.9505 99.8398 50.0446 99.7782 50.1185C99.7164 50.1924 99.615 50.2364 99.5066 50.2364ZM73.6417 49.6886H99.0304L97.5785 46.4758H75.0936L73.6417 49.6886Z" fill="#1976D2"/>
<path d="M83.8971 61.614C83.7147 61.614 83.5668 61.4915 83.5668 61.34V53.9133H79.0425V61.34C79.0425 61.4913 78.8946 61.614 78.7122 61.614C78.5299 61.614 78.382 61.4915 78.382 61.34V53.6445C78.382 53.4932 78.5351 53.3655 78.7174 53.3655H83.8868C84.0744 53.3655 84.227 53.4925 84.227 53.6486V61.3402C84.2273 61.4915 84.0794 61.614 83.8971 61.614Z" fill="#1976D2"/>
<path d="M94.1968 56.5799H87.4872C87.3049 56.5799 87.157 56.4572 87.157 56.306V52.1363C87.157 51.985 87.3049 51.8623 87.4872 51.8623H94.1968C94.3792 51.8623 94.5271 51.985 94.5271 52.1363V56.3061C94.5269 56.4572 94.379 56.5799 94.1968 56.5799ZM87.8173 56.0321H93.8663V52.4101H87.8173V56.0321Z" fill="#1976D2"/>
<path d="M94.1548 53.2428H87.4872C87.3049 53.2428 87.157 53.1203 87.157 52.9688C87.157 52.8175 87.3049 52.6948 87.4872 52.6948H94.155C94.3373 52.6948 94.4852 52.8174 94.4852 52.9688C94.4851 53.1201 94.3372 53.2428 94.1548 53.2428Z" fill="#1976D2"/>
<path d="M82.5313 41.2175H78.6848C78.5024 41.2175 78.3545 41.0948 78.3545 40.9435C78.3545 40.7922 78.5024 40.6695 78.6848 40.6695H82.5313C82.7137 40.6695 82.8616 40.7922 82.8616 40.9435C82.8614 41.0948 82.7135 41.2175 82.5313 41.2175Z" fill="#1976D2"/>
<path d="M94.1548 41.2175H90.3082C90.1258 41.2175 89.9779 41.0948 89.9779 40.9435C89.9779 40.7922 90.1258 40.6695 90.3082 40.6695H94.1548C94.3371 40.6695 94.485 40.7922 94.485 40.9435C94.485 41.0948 94.3371 41.2175 94.1548 41.2175Z" fill="#1976D2"/>
<path d="M17.1627 55.2253C17.1094 55.2253 17.0558 55.2208 17.0026 55.2118C16.7962 55.1768 16.6189 55.0774 16.5033 54.9322C16.2644 54.6318 16.3643 54.226 16.7265 54.0275L23.927 50.0836C24.0612 50.0102 24.2182 49.973 24.3779 49.9765C24.5397 49.9728 24.6948 50.0102 24.8288 50.0838L32.0293 54.0275C32.3915 54.2258 32.4916 54.6317 32.2525 54.9322C32.1371 55.0774 31.9598 55.1766 31.7534 55.2118C31.547 55.2468 31.337 55.2134 31.162 55.1173L24.3779 51.4017L17.5938 55.1173C17.4641 55.1885 17.315 55.2253 17.1627 55.2253ZM24.3591 50.5243C24.3341 50.5243 24.3111 50.53 24.291 50.541L17.0903 54.4847C17.033 54.516 17.0165 54.5829 17.0543 54.6304C17.0791 54.6615 17.1153 54.6717 17.1346 54.675C17.154 54.6784 17.1919 54.6808 17.2297 54.6603L24.1957 50.8449C24.3061 50.7845 24.4493 50.7845 24.5597 50.8449L31.5257 54.6601C31.5633 54.6807 31.6012 54.6782 31.6208 54.6749C31.6402 54.6717 31.6763 54.6614 31.7011 54.6302C31.7391 54.5827 31.7226 54.5159 31.6653 54.4844L24.4646 50.5407C24.4375 50.5258 24.4091 50.5235 24.3909 50.524C24.382 50.5243 24.3734 50.5243 24.3645 50.524C24.363 50.5243 24.3611 50.5243 24.3591 50.5243Z" fill="#1976D2"/>
<path d="M24.404 54.7767C23.7278 54.7767 23.1779 54.3204 23.1779 53.7596C23.1779 53.1988 23.7278 52.7425 24.404 52.7425C25.0801 52.7425 25.63 53.1988 25.63 53.7596C25.63 54.3204 25.0801 54.7767 24.404 54.7767ZM24.404 53.2903C24.0922 53.2903 23.8384 53.5009 23.8384 53.7596C23.8384 54.0183 24.0922 54.2289 24.404 54.2289C24.7159 54.2289 24.9697 54.0183 24.9697 53.7596C24.9697 53.5009 24.7159 53.2903 24.404 53.2903Z" fill="#1976D2"/>
<path d="M30.7763 61.5713H18.0318C17.8494 61.5713 17.7015 61.4486 17.7015 61.2973V54.5886C17.7015 54.4373 17.8494 54.3146 18.0318 54.3146C18.2142 54.3146 18.3621 54.4373 18.3621 54.5886V61.0235H30.4462V54.5886C30.4462 54.4373 30.5941 54.3146 30.7765 54.3146C30.9588 54.3146 31.1067 54.4373 31.1067 54.5886V61.2973C31.1065 61.4486 30.9586 61.5713 30.7763 61.5713Z" fill="#1976D2"/>
<path d="M28.6291 61.3927C28.4467 61.3927 28.2988 61.27 28.2988 61.1187V56.1394H20.4568V61.1187C20.4568 61.27 20.3089 61.3927 20.1265 61.3927C19.9442 61.3927 19.7963 61.27 19.7963 61.1187V55.8656C19.7963 55.7143 19.9442 55.5916 20.1265 55.5916H28.6289C28.8113 55.5916 28.959 55.7143 28.959 55.8656V61.1187C28.9594 61.27 28.8115 61.3927 28.6291 61.3927Z" fill="#1976D2"/>
<path d="M28.6292 56.8203H20.1268C19.9965 56.8203 19.891 56.7327 19.891 56.6246C19.891 56.5165 19.9965 56.429 20.1268 56.429H28.6292C28.7594 56.429 28.8649 56.5165 28.8649 56.6246C28.8649 56.7327 28.7594 56.8203 28.6292 56.8203Z" fill="#1976D2"/>
<path d="M28.6292 57.6093H20.1268C19.9965 57.6093 19.891 57.5218 19.891 57.4137C19.891 57.3056 19.9965 57.2181 20.1268 57.2181H28.6292C28.7594 57.2181 28.8649 57.3056 28.8649 57.4137C28.8649 57.5218 28.7594 57.6093 28.6292 57.6093Z" fill="#1976D2"/>
<path d="M28.6292 58.3984H20.1268C19.9965 58.3984 19.891 58.3108 19.891 58.2028C19.891 58.0947 19.9965 58.0071 20.1268 58.0071H28.6292C28.7594 58.0071 28.8649 58.0947 28.8649 58.2028C28.8649 58.3108 28.7594 58.3984 28.6292 58.3984Z" fill="#1976D2"/>
<path d="M28.6292 59.1873H20.1268C19.9965 59.1873 19.891 59.0997 19.891 58.9916C19.891 58.8836 19.9965 58.796 20.1268 58.796H28.6292C28.7594 58.796 28.8649 58.8836 28.8649 58.9916C28.8649 59.0997 28.7594 59.1873 28.6292 59.1873Z" fill="#1976D2"/>
<path d="M28.6292 59.9763H20.1268C19.9965 59.9763 19.891 59.8888 19.891 59.7807C19.891 59.6726 19.9965 59.5851 20.1268 59.5851H28.6292C28.7594 59.5851 28.8649 59.6726 28.8649 59.7807C28.8649 59.8888 28.7594 59.9763 28.6292 59.9763Z" fill="#1976D2"/>
<path d="M28.6292 60.7654H20.1268C19.9965 60.7654 19.891 60.6779 19.891 60.5698C19.891 60.4617 19.9965 60.3741 20.1268 60.3741H28.6292C28.7594 60.3741 28.8649 60.4617 28.8649 60.5698C28.8649 60.6779 28.7594 60.7654 28.6292 60.7654Z" fill="#1976D2"/>
<path d="M102.732 61.8469C102.55 61.8469 102.402 61.7242 102.402 61.5729V48.4451C102.402 48.2938 102.55 48.1711 102.732 48.1711C102.915 48.1711 103.062 48.2938 103.062 48.4451V61.5729C103.062 61.7242 102.915 61.8469 102.732 61.8469Z" fill="#1976D2"/>
<path d="M102.733 51.1585C102.648 51.1585 102.564 51.1319 102.499 51.0784L101.204 50.0036C101.075 49.8966 101.075 49.7232 101.204 49.6162C101.332 49.5093 101.541 49.5093 101.67 49.6162L102.966 50.691C103.095 50.798 103.095 50.9714 102.966 51.0784C102.902 51.1319 102.817 51.1585 102.733 51.1585Z" fill="#1976D2"/>
<path d="M102.732 53.164C102.667 53.164 102.602 53.1481 102.544 53.115C102.395 53.0286 102.357 52.8579 102.462 52.7337L103.882 51.0385C103.986 50.9142 104.192 50.8836 104.341 50.97C104.491 51.0564 104.528 51.2271 104.424 51.3513L103.004 53.0464C102.94 53.1229 102.837 53.164 102.732 53.164Z" fill="#1976D2"/>
<path d="M102.77 56.6942C102.742 56.6942 102.714 56.6913 102.687 56.6855C102.61 56.6688 100.776 56.2527 100.129 54.1373C99.4707 51.9849 100.841 44.6506 102.165 43.2379C102.302 43.0929 102.446 42.9978 102.598 42.954C102.642 42.9358 102.692 42.9257 102.744 42.9257H102.796C102.849 42.9257 102.898 42.9358 102.942 42.954C103.094 42.998 103.239 43.0929 103.375 43.2379C104.699 44.6506 106.07 51.9849 105.411 54.1373C104.764 56.2527 102.93 56.6688 102.853 56.6855C102.826 56.6913 102.798 56.6942 102.77 56.6942ZM102.77 43.4923C102.426 43.7035 101.734 45.1747 101.158 48.0046C100.627 50.6152 100.47 53.0256 100.769 54.0026C101.247 55.5632 102.445 56.032 102.77 56.1324C103.102 56.0312 104.292 55.5665 104.771 54.0026C105.07 53.0256 104.913 50.6154 104.382 48.0046C103.806 45.1747 103.114 43.7035 102.77 43.4923Z" fill="#1976D2"/>
<path d="M10.8444 64C10.6622 64 10.5144 63.8793 10.5144 63.7302V50.8649C10.5144 50.7159 10.6622 50.5953 10.8444 50.5953C11.0266 50.5953 11.1744 50.7159 11.1744 50.8649V63.7302C11.1742 63.8793 11.0264 64 10.8444 64Z" fill="#1976D2"/>
<path d="M10.8446 52.5711C10.7602 52.5711 10.6756 52.5443 10.6111 52.491L9.32145 51.4212C9.19252 51.3142 9.19253 51.1407 9.32126 51.0338C9.45019 50.9268 9.65926 50.9268 9.78819 51.0338L11.0779 52.1034C11.2068 52.2104 11.2068 52.3838 11.0781 52.4908C11.0136 52.5443 10.929 52.5711 10.8446 52.5711Z" fill="#1976D2"/>
<path d="M10.8442 54.5671C10.7792 54.5671 10.7135 54.5512 10.656 54.5181C10.5064 54.4317 10.4692 54.2609 10.5734 54.1368L11.987 52.4496C12.0911 52.3253 12.2967 52.2946 12.4465 52.381C12.5962 52.4675 12.6333 52.6382 12.5292 52.7623L11.1156 54.4495C11.0515 54.5259 10.9487 54.5671 10.8442 54.5671Z" fill="#1976D2"/>
<path d="M10.8816 58.0804C10.8537 58.0804 10.826 58.0775 10.7989 58.0717C10.7215 58.055 8.89615 57.6406 8.25189 55.5346C7.5964 53.3921 8.96023 46.0919 10.2788 44.6858C10.4143 44.5413 10.5587 44.4465 10.7099 44.4028C10.754 44.3849 10.8036 44.3746 10.8558 44.3746H10.9075C10.96 44.3746 11.0096 44.3847 11.0535 44.4028C11.2047 44.4467 11.3491 44.5413 11.4846 44.686C12.8029 46.0921 14.1668 53.3923 13.5115 55.5348C12.8672 57.6408 11.0417 58.0552 10.9644 58.0719C10.9371 58.0775 10.9095 58.0804 10.8816 58.0804ZM10.8816 44.943C10.5933 45.1357 9.89932 46.3817 9.27849 49.4329C8.74999 52.0302 8.59473 54.428 8.89189 55.3999C9.36773 56.9553 10.5515 57.4179 10.8816 57.5184C11.2117 57.4177 12.3954 56.9553 12.8713 55.3999C13.1686 54.428 13.0132 52.0302 12.4847 49.4329C11.8639 46.3815 11.1698 45.1357 10.8816 44.943Z" fill="#1976D2"/>
<path d="M56.0574 61.5376H41.5923C41.41 61.5376 41.2621 61.4149 41.2621 61.2636V49.8865C41.2621 49.7353 41.41 49.6125 41.5923 49.6125C41.7747 49.6125 41.9226 49.7351 41.9226 49.8865V60.9897H55.7274V49.8865C55.7274 49.7353 55.8753 49.6125 56.0576 49.6125C56.24 49.6125 56.3879 49.7351 56.3879 49.8865V61.2636C56.3877 61.4149 56.2398 61.5376 56.0574 61.5376Z" fill="#1976D2"/>
<path d="M67.0745 50.011H58.2332C58.0508 50.011 57.9029 49.8883 57.9029 49.7371C57.9029 49.5858 58.0508 49.4632 58.2332 49.4632H66.6293L63.8433 41.8418H33.9243L31.1384 49.4632H39.4652C39.6476 49.4632 39.7955 49.5858 39.7955 49.7371C39.7955 49.8883 39.6476 50.011 39.4652 50.011H30.6934C30.5888 50.011 30.4905 49.9699 30.4281 49.9002C30.3658 49.8305 30.347 49.7406 30.3774 49.6575L33.3635 41.4883C33.4057 41.3728 33.5341 41.2938 33.6794 41.2938H64.0882C64.2336 41.2938 64.3619 41.3728 64.4041 41.4883L67.3903 49.6575C67.4206 49.7406 67.4019 49.8305 67.3395 49.9002C67.2774 49.9699 67.179 50.011 67.0745 50.011Z" fill="#1976D2"/>
<path d="M65.6102 61.5376H31.9974C31.815 61.5376 31.6671 61.4149 31.6671 61.2636V49.7371C31.6671 49.5858 31.815 49.4633 31.9974 49.4633C32.1797 49.4633 32.3276 49.5858 32.3276 49.7371V60.9896H65.2815L65.3402 49.736C65.341 49.5852 65.4887 49.4633 65.6704 49.4633C65.6708 49.4633 65.6714 49.4633 65.6718 49.4633C65.8542 49.4639 66.0015 49.5871 66.0005 49.7384L65.9405 61.2649C65.9395 61.4156 65.792 61.5376 65.6102 61.5376Z" fill="#1976D2"/>
<path d="M51.4404 61.5376C51.2581 61.5376 51.1101 61.4149 51.1101 61.2636V54.2871H46.5376V61.1321C46.5376 61.2834 46.3897 61.4061 46.2073 61.4061C46.025 61.4061 45.8771 61.2835 45.8771 61.1321V54.0131C45.8771 53.8618 46.025 53.7391 46.2073 53.7391H51.4404C51.6228 53.7391 51.7705 53.8618 51.7705 54.0131V61.2636C51.7705 61.4149 51.6228 61.5376 51.4404 61.5376Z" fill="#1976D2"/>
<path d="M38.7318 57.3117H34.8823C34.6999 57.3117 34.552 57.1892 34.552 57.0377V52.2705C34.552 52.1192 34.6999 51.9965 34.8823 51.9965H38.7318C38.9141 51.9965 39.062 52.1192 39.062 52.2705V57.0377C39.0618 57.189 38.9139 57.3117 38.7318 57.3117ZM35.2123 56.7637H38.4015V52.5443H35.2123V56.7637Z" fill="#1976D2"/>
<path d="M62.7286 57.3117H58.8793C58.697 57.3117 58.5491 57.1892 58.5491 57.0377V52.2705C58.5491 52.1192 58.697 51.9965 58.8793 51.9965H62.7286C62.911 51.9965 63.0589 52.1192 63.0589 52.2705V57.0377C63.0587 57.189 62.911 57.3117 62.7286 57.3117ZM59.2094 56.7637H62.3984V52.5443H59.2094V56.7637Z" fill="#1976D2"/>
<path d="M76.9382 35.4161C76.7558 35.4161 76.6079 35.2934 76.6079 35.1421V31.205C76.6079 31.0537 76.7558 30.931 76.9382 30.931H80.156C80.3383 30.931 80.4862 31.0537 80.4862 31.205V33.3798C80.4862 33.5311 80.3383 33.6536 80.156 33.6536C79.9736 33.6536 79.8257 33.5311 79.8257 33.3798V31.479H77.2682V35.1423C77.2682 35.2934 77.1203 35.4161 76.9382 35.4161Z" fill="#1976D2"/>
<path d="M79.9609 31.4788H77.0653C76.5265 31.4788 76.088 31.1152 76.088 30.6681V30.657C76.088 30.2099 76.5265 29.8463 77.0653 29.8463H79.9609C80.4997 29.8463 80.9382 30.2099 80.9382 30.657V30.6681C80.9382 31.1152 80.4997 31.4788 79.9609 31.4788ZM77.0653 30.3942C76.8904 30.3942 76.7483 30.5121 76.7483 30.6572V30.6682C76.7483 30.8133 76.8904 30.9311 77.0653 30.9311H79.9609C80.1356 30.9311 80.2776 30.8133 80.2776 30.6682V30.6572C80.2776 30.5121 80.1356 30.3942 79.9609 30.3942H77.0653Z" fill="#1976D2"/>
<path d="M73.4689 61.5376H66.0396C65.8573 61.5376 65.7094 61.4149 65.7094 61.2636V55.5004C65.7094 55.3491 65.8573 55.2264 66.0396 55.2264H73.4689C73.6513 55.2264 73.7992 55.349 73.7992 55.5004V61.2636C73.799 61.4149 73.6513 61.5376 73.4689 61.5376ZM66.3697 60.9896H73.1387V55.7743H66.3697V60.9896Z" fill="#1976D2"/>
<path d="M66.9792 61.5376C66.7969 61.5376 66.6492 61.4149 66.6492 61.2636V55.5004C66.6492 55.3491 66.7969 55.2264 66.9792 55.2264C67.1614 55.2264 67.309 55.349 67.309 55.5004V61.2636C67.309 61.4149 67.1612 61.5376 66.9792 61.5376Z" fill="#1976D2"/>
<path d="M68.0757 61.5376C67.8935 61.5376 67.7457 61.4149 67.7457 61.2636V55.5004C67.7457 55.3491 67.8935 55.2264 68.0757 55.2264C68.2579 55.2264 68.4055 55.349 68.4055 55.5004V61.2636C68.4055 61.4149 68.2577 61.5376 68.0757 61.5376Z" fill="#1976D2"/>
<path d="M69.1722 61.5376C68.9899 61.5376 68.8422 61.4149 68.8422 61.2636V55.5004C68.8422 55.3491 68.9899 55.2264 69.1722 55.2264C69.3544 55.2264 69.5021 55.349 69.5021 55.5004V61.2636C69.5019 61.4149 69.3542 61.5376 69.1722 61.5376Z" fill="#1976D2"/>
<path d="M70.2685 61.5376C70.0863 61.5376 69.9385 61.4149 69.9385 61.2636V55.5004C69.9385 55.3491 70.0863 55.2264 70.2685 55.2264C70.4507 55.2264 70.5985 55.349 70.5985 55.5004V61.2636C70.5985 61.4149 70.4507 61.5376 70.2685 61.5376Z" fill="#1976D2"/>
<path d="M71.3649 61.5376C71.1827 61.5376 71.0349 61.4149 71.0349 61.2636V55.5004C71.0349 55.3491 71.1827 55.2264 71.3649 55.2264C71.5471 55.2264 71.6949 55.349 71.6949 55.5004V61.2636C71.6949 61.4149 71.5471 61.5376 71.3649 61.5376Z" fill="#1976D2"/>
<path d="M72.4615 61.5376C72.2792 61.5376 72.1315 61.4149 72.1315 61.2636V55.5004C72.1315 55.3491 72.2792 55.2264 72.4615 55.2264C72.6437 55.2264 72.7914 55.349 72.7914 55.5004V61.2636C72.7913 61.4149 72.6435 61.5376 72.4615 61.5376Z" fill="#1976D2"/>
<path d="M14.5411 64C14.3588 64 14.2111 63.8775 14.2111 63.726V57.3597C14.2111 57.2085 14.3588 57.0858 14.5411 57.0858C14.7233 57.0858 14.8708 57.2083 14.8708 57.3597V63.726C14.8708 63.8773 14.7233 64 14.5411 64Z" fill="#1976D2"/>
<path d="M14.5414 58.7949C14.4572 58.7949 14.3729 58.7684 14.3087 58.7152L13.5599 58.0979C13.4306 57.9912 13.4298 57.8178 13.5583 57.7105C13.6869 57.6032 13.8959 57.6027 14.0253 57.7094L14.7741 58.3267C14.9034 58.4334 14.904 58.6068 14.7756 58.7141C14.7109 58.7679 14.6262 58.7949 14.5414 58.7949Z" fill="#1976D2"/>
<path d="M14.5411 59.8997C14.4776 59.8997 14.4135 59.8846 14.357 59.853C14.2058 59.7685 14.1656 59.5983 14.2676 59.4728L15.1639 58.368C15.2657 58.2424 15.4709 58.2093 15.6221 58.2937C15.7733 58.3781 15.8136 58.5484 15.7117 58.6738L14.8154 59.7786C14.7514 59.8573 14.6472 59.8997 14.5411 59.8997Z" fill="#1976D2"/>
<path d="M14.5414 60.7365C12.8638 60.7365 11.4988 59.6042 11.4988 58.2122C11.4988 56.8204 12.8638 55.688 14.5414 55.688C16.219 55.688 17.5838 56.8204 17.5838 58.2122C17.5838 59.604 16.219 60.7365 14.5414 60.7365ZM14.5414 56.2358C13.2277 56.2358 12.1591 57.1224 12.1591 58.2122C12.1591 59.3019 13.2277 60.1886 14.5414 60.1886C15.8549 60.1886 16.9235 59.3021 16.9235 58.2122C16.9235 57.1225 15.8549 56.2358 14.5414 56.2358Z" fill="#1976D2"/>
<path d="M35.9671 19.4437H29.1135C27.2138 19.4437 25.6682 18.1614 25.6682 16.5853C25.6682 15.1253 26.9788 13.9185 28.6973 13.7479C29.0498 12.4883 30.4303 11.5634 32.0113 11.5634C33.6278 11.5634 34.9955 12.4947 35.3333 13.7755C35.5418 13.7433 35.7539 13.7269 35.9671 13.7269C37.8668 13.7269 39.4124 15.0092 39.4124 16.5852C39.4124 18.1614 37.8668 19.4437 35.9671 19.4437ZM32.0111 12.1112C30.6655 12.1112 29.5001 12.9423 29.3007 14.0444L29.2604 14.2675L28.9888 14.2774C27.497 14.332 26.3285 15.3456 26.3285 16.5853C26.3285 17.8593 27.5778 18.8958 29.1135 18.8958H35.9671C37.5026 18.8958 38.752 17.8593 38.752 16.5853C38.752 15.3114 37.5028 14.2749 35.9671 14.2749C35.6932 14.2749 35.4218 14.3081 35.1604 14.3736L34.779 14.4692L34.7366 14.1406C34.5872 12.9836 33.4156 12.1112 32.0111 12.1112Z" fill="#1976D2"/>
<path d="M58.7903 25.6091H51.9367C50.0368 25.6091 48.4912 24.3269 48.4912 22.7508C48.4912 21.1748 50.0368 19.8925 51.9367 19.8925C52.1498 19.8925 52.362 19.9089 52.5705 19.9412C52.9083 18.6605 54.2762 17.729 55.8925 17.729C57.4735 17.729 58.854 18.6539 59.2067 19.9136C60.9252 20.0841 62.2356 21.2909 62.2356 22.751C62.2356 24.3269 60.69 25.6091 58.7903 25.6091ZM51.9367 20.4402C50.4011 20.4402 49.1517 21.4767 49.1517 22.7507C49.1517 24.0246 50.4011 25.0612 51.9367 25.0612H58.7903C60.3258 25.0612 61.5752 24.0246 61.5752 22.7507C61.5752 21.5111 60.4067 20.4974 58.9151 20.4428L58.6435 20.4328L58.6033 20.2097C58.4037 19.1076 57.2383 18.2765 55.8926 18.2765C54.4882 18.2765 53.3166 19.1489 53.1673 20.3058L53.1249 20.6345L52.7436 20.5388C52.482 20.4734 52.2106 20.4402 51.9367 20.4402Z" fill="#1976D2"/>
</svg>
