<svg width="208" height="64" viewBox="0 0 208 64" fill="none" xmlns="http://www.w3.org/2000/svg">
<path d="M167.945 63.452H133.765C133.614 63.452 133.491 63.5745 133.491 63.726C133.491 63.8772 133.614 64 133.765 64H167.945C168.096 64 168.219 63.8774 168.219 63.726C168.219 63.5747 168.096 63.452 167.945 63.452Z" fill="white" fill-opacity="0.75"/>
<path d="M130.049 63.452H93.274C93.1227 63.452 93 63.5746 93 63.726C93 63.8773 93.1227 64 93.274 64H130.049C130.2 64 130.323 63.8775 130.323 63.726C130.323 63.5747 130.2 63.452 130.049 63.452Z" fill="white" fill-opacity="0.75"/>
<path d="M207.071 63.452H199.315C199.164 63.452 199.041 63.5745 199.041 63.726C199.041 63.8772 199.164 64 199.315 64H207.071C207.222 64 207.345 63.8774 207.345 63.726C207.345 63.5747 207.222 63.452 207.071 63.452Z" fill="white" fill-opacity="0.75"/>
<path d="M194.402 63.452H179.348C179.197 63.452 179.074 63.5745 179.074 63.726C179.074 63.8772 179.197 64 179.348 64H194.402C194.553 64 194.676 63.8774 194.676 63.726C194.676 63.5747 194.553 63.452 194.402 63.452Z" fill="white" fill-opacity="0.75"/>
<path d="M202.142 38.6223C201.965 38.6223 201.786 38.5721 201.627 38.4674L191.663 31.8893L181.699 38.4674C181.491 38.6049 181.24 38.6531 180.995 38.6027C180.749 38.5524 180.538 38.4099 180.4 38.2016C180.263 37.9933 180.214 37.7431 180.265 37.4974C180.315 37.2516 180.458 37.0404 180.666 36.903L191.122 30.0003C191.282 29.8943 191.472 29.8414 191.663 29.8467C191.859 29.8416 192.044 29.8943 192.205 30.0003L202.66 36.903C203.092 37.1877 203.211 37.7704 202.926 38.2018C202.746 38.4743 202.447 38.6223 202.142 38.6223ZM191.663 31.2871C191.716 31.2871 191.768 31.3022 191.814 31.3323L201.929 38.0102C202.108 38.1284 202.351 38.0791 202.469 37.8997C202.587 37.7205 202.538 37.4783 202.358 37.3599L191.903 30.4572C191.835 30.4129 191.756 30.3915 191.674 30.3942C191.667 30.3946 191.66 30.3946 191.652 30.3942C191.57 30.3917 191.491 30.4127 191.424 30.457L180.968 37.3597C180.882 37.4166 180.823 37.5044 180.801 37.6069C180.781 37.7094 180.8 37.8133 180.857 37.8995C180.914 37.9858 181.002 38.0449 181.104 38.0658C181.207 38.0866 181.311 38.0669 181.397 38.01L191.512 31.3322C191.558 31.3023 191.61 31.2871 191.663 31.2871Z" fill="white" fill-opacity="0.75"/>
<path d="M168.047 50.9647C167.902 50.9647 167.76 50.9225 167.636 50.8409L160.527 46.1473L153.417 50.8409C153.251 50.9509 153.051 50.9895 152.854 50.9492C152.657 50.909 152.488 50.7948 152.378 50.6281C152.15 50.283 152.245 49.8167 152.591 49.5888L160.096 44.6343C160.224 44.5498 160.374 44.5082 160.527 44.5113C160.681 44.5077 160.83 44.5498 160.958 44.6343L168.463 49.5888C168.808 49.8167 168.903 50.283 168.676 50.6281C168.565 50.7948 168.397 50.9088 168.2 50.9492C168.149 50.9596 168.098 50.9647 168.047 50.9647ZM160.527 45.5451C160.579 45.5451 160.632 45.5602 160.678 45.5904L167.938 50.3835C167.983 50.4129 168.037 50.423 168.09 50.4122C168.143 50.4013 168.189 50.3707 168.218 50.3262C168.248 50.2815 168.258 50.2275 168.247 50.1742C168.236 50.1209 168.206 50.0753 168.161 50.0459L160.656 45.0914C160.612 45.0623 160.567 45.0581 160.537 45.0589C160.53 45.0592 160.523 45.0592 160.516 45.0589C160.486 45.0578 160.441 45.0625 160.397 45.0914L152.892 50.0459C152.848 50.0755 152.817 50.1209 152.806 50.1742C152.795 50.2275 152.806 50.2815 152.835 50.3262C152.865 50.3708 152.91 50.4013 152.963 50.4122C153.017 50.4232 153.071 50.4129 153.115 50.3835L160.376 45.5904C160.422 45.5603 160.474 45.5451 160.527 45.5451Z" fill="white" fill-opacity="0.75"/>
<path d="M201.097 46.4758H182.155C182.003 46.4758 181.881 46.3533 181.881 46.2018V37.8381C181.881 37.6868 182.003 37.5641 182.155 37.5641C182.306 37.5641 182.429 37.6868 182.429 37.8381V45.9278H200.823V37.7888C200.823 37.6375 200.946 37.515 201.097 37.515C201.248 37.515 201.371 37.6375 201.371 37.7888V46.2017C201.371 46.3533 201.248 46.4758 201.097 46.4758Z" fill="white" fill-opacity="0.75"/>
<path d="M201.097 61.6141H182.155C182.003 61.6141 181.881 61.4915 181.881 61.3401V50.0289C181.881 49.8776 182.003 49.7549 182.155 49.7549C182.306 49.7549 182.429 49.8776 182.429 50.0289V61.0662H200.823V49.9624C200.823 49.8111 200.946 49.6884 201.097 49.6884C201.248 49.6884 201.371 49.8111 201.371 49.9624V61.3401C201.371 61.4915 201.248 61.6141 201.097 61.6141Z" fill="white" fill-opacity="0.75"/>
<path d="M191.626 38.0629C190.495 38.0629 189.575 37.1426 189.575 36.0115C189.575 34.8803 190.495 33.9602 191.626 33.9602C192.757 33.9602 193.677 34.8805 193.677 36.0115C193.677 37.1428 192.757 38.0629 191.626 38.0629ZM191.626 34.508C190.797 34.508 190.122 35.1824 190.122 36.0115C190.122 36.8405 190.797 37.5149 191.626 37.5149C192.455 37.5149 193.129 36.8405 193.129 36.0115C193.129 35.1826 192.455 34.508 191.626 34.508Z" fill="white" fill-opacity="0.75"/>
<path d="M191.626 38.0629C191.475 38.0629 191.352 37.9402 191.352 37.7889V34.234C191.352 34.0827 191.475 33.96 191.626 33.96C191.777 33.96 191.9 34.0827 191.9 34.234V37.7889C191.9 37.9403 191.777 38.0629 191.626 38.0629Z" fill="white" fill-opacity="0.75"/>
<path d="M193.39 36.2855H189.848C189.697 36.2855 189.574 36.1629 189.574 36.0115C189.574 35.8602 189.697 35.7375 189.848 35.7375H193.39C193.541 35.7375 193.664 35.8602 193.664 36.0115C193.663 36.1629 193.541 36.2855 193.39 36.2855Z" fill="white" fill-opacity="0.75"/>
<path d="M160.556 51.9127C159.424 51.9127 158.504 50.9925 158.504 49.8613C158.504 48.7302 159.424 47.8101 160.556 47.8101C161.687 47.8101 162.607 48.7303 162.607 49.8613C162.607 50.9925 161.687 51.9127 160.556 51.9127ZM160.556 48.3579C159.727 48.3579 159.052 49.0323 159.052 49.8613C159.052 50.6904 159.727 51.3648 160.556 51.3648C161.385 51.3648 162.059 50.6904 162.059 49.8613C162.059 49.0323 161.385 48.3579 160.556 48.3579Z" fill="white" fill-opacity="0.75"/>
<path d="M160.556 51.9128C160.404 51.9128 160.282 51.7901 160.282 51.6388V48.0839C160.282 47.9326 160.404 47.8099 160.556 47.8099C160.707 47.8099 160.83 47.9326 160.83 48.0839V51.6388C160.829 51.7901 160.707 51.9128 160.556 51.9128Z" fill="white" fill-opacity="0.75"/>
<path d="M162.319 50.1353H158.778C158.627 50.1353 158.504 50.0126 158.504 49.8613C158.504 49.71 158.627 49.5873 158.778 49.5873H162.319C162.471 49.5873 162.593 49.71 162.593 49.8613C162.593 50.0126 162.471 50.1353 162.319 50.1353Z" fill="white" fill-opacity="0.75"/>
<path d="M188.47 43.6457H185.279C185.128 43.6457 185.005 43.523 185.005 43.3717V40.1804C185.005 40.0292 185.128 39.9066 185.279 39.9066H188.47C188.622 39.9066 188.744 40.0292 188.744 40.1804V43.3717C188.744 43.523 188.622 43.6457 188.47 43.6457ZM185.553 43.0979H188.196V40.4544H185.553V43.0979Z" fill="white" fill-opacity="0.75"/>
<path d="M198.114 43.6457H194.922C194.771 43.6457 194.648 43.523 194.648 43.3717V40.1804C194.648 40.0292 194.771 39.9066 194.922 39.9066H198.114C198.265 39.9066 198.388 40.0292 198.388 40.1804V43.3717C198.388 43.523 198.265 43.6457 198.114 43.6457ZM195.196 43.0979H197.84V40.4544H195.196V43.0979Z" fill="white" fill-opacity="0.75"/>
<path d="M202.554 50.2364H180.7C180.61 50.2364 180.526 50.1924 180.475 50.1185C180.424 50.0446 180.412 49.9505 180.444 49.8664L181.854 46.1058C181.894 45.9988 181.996 45.928 182.11 45.928H201.144C201.258 45.928 201.36 45.9988 201.4 46.1058L202.81 49.8664C202.842 49.9505 202.83 50.0446 202.779 50.1185C202.728 50.1924 202.644 50.2364 202.554 50.2364ZM181.095 49.6886H202.159L200.954 46.4758H182.3L181.095 49.6886Z" fill="white" fill-opacity="0.75"/>
<path d="M189.604 61.614C189.452 61.614 189.33 61.4915 189.33 61.34V53.9133H185.576V61.34C185.576 61.4913 185.453 61.614 185.302 61.614C185.151 61.614 185.028 61.4915 185.028 61.34V53.6445C185.028 53.4932 185.155 53.3655 185.306 53.3655H189.595C189.751 53.3655 189.877 53.4925 189.877 53.6486V61.3402C189.878 61.4915 189.755 61.614 189.604 61.614Z" fill="white" fill-opacity="0.75"/>
<path d="M198.148 56.5799H192.582C192.431 56.5799 192.308 56.4572 192.308 56.306V52.1363C192.308 51.985 192.431 51.8623 192.582 51.8623H198.148C198.3 51.8623 198.422 51.985 198.422 52.1363V56.3061C198.422 56.4572 198.3 56.5799 198.148 56.5799ZM192.856 56.0321H197.874V52.4101H192.856V56.0321Z" fill="white" fill-opacity="0.75"/>
<path d="M198.114 53.2428H192.582C192.431 53.2428 192.308 53.1203 192.308 52.9688C192.308 52.8175 192.431 52.6948 192.582 52.6948H198.114C198.265 52.6948 198.388 52.8174 198.388 52.9688C198.388 53.1201 198.265 53.2428 198.114 53.2428Z" fill="white" fill-opacity="0.75"/>
<path d="M188.47 41.2175H185.279C185.128 41.2175 185.005 41.0948 185.005 40.9435C185.005 40.7922 185.128 40.6695 185.279 40.6695H188.47C188.622 40.6695 188.744 40.7922 188.744 40.9435C188.744 41.0948 188.622 41.2175 188.47 41.2175Z" fill="white" fill-opacity="0.75"/>
<path d="M198.114 41.2175H194.922C194.771 41.2175 194.648 41.0948 194.648 40.9435C194.648 40.7922 194.771 40.6695 194.922 40.6695H198.114C198.265 40.6695 198.388 40.7922 198.388 40.9435C198.388 41.0948 198.265 41.2175 198.114 41.2175Z" fill="white" fill-opacity="0.75"/>
<path d="M134.239 55.2253C134.195 55.2253 134.15 55.2208 134.106 55.2118C133.935 55.1768 133.788 55.0774 133.692 54.9322C133.493 54.6318 133.576 54.226 133.877 54.0275L139.851 50.0836C139.962 50.0102 140.092 49.973 140.225 49.9765C140.359 49.9728 140.488 50.0102 140.599 50.0838L146.572 54.0275C146.873 54.2258 146.956 54.6317 146.758 54.9322C146.662 55.0774 146.515 55.1766 146.344 55.2118C146.172 55.2468 145.998 55.2134 145.853 55.1173L140.225 51.4017L134.596 55.1173C134.489 55.1885 134.365 55.2253 134.239 55.2253ZM140.209 50.5243C140.188 50.5243 140.169 50.53 140.153 50.541L134.179 54.4847C134.131 54.516 134.117 54.5829 134.149 54.6304C134.169 54.6615 134.199 54.6717 134.215 54.675C134.231 54.6784 134.263 54.6808 134.294 54.6603L140.074 50.8449C140.165 50.7845 140.284 50.7845 140.375 50.8449L146.155 54.6601C146.186 54.6807 146.217 54.6782 146.234 54.6749C146.25 54.6717 146.28 54.6614 146.3 54.6302C146.332 54.5827 146.318 54.5159 146.271 54.4844L140.297 50.5407C140.274 50.5258 140.251 50.5235 140.235 50.524C140.228 50.5243 140.221 50.5243 140.214 50.524C140.212 50.5243 140.211 50.5243 140.209 50.5243Z" fill="white" fill-opacity="0.75"/>
<path d="M140.246 54.7767C139.685 54.7767 139.229 54.3204 139.229 53.7596C139.229 53.1988 139.685 52.7425 140.246 52.7425C140.807 52.7425 141.263 53.1988 141.263 53.7596C141.263 54.3204 140.807 54.7767 140.246 54.7767ZM140.246 53.2903C139.988 53.2903 139.777 53.5009 139.777 53.7596C139.777 54.0183 139.988 54.2289 140.246 54.2289C140.505 54.2289 140.716 54.0183 140.716 53.7596C140.716 53.5009 140.505 53.2903 140.246 53.2903Z" fill="white" fill-opacity="0.75"/>
<path d="M145.533 61.5713H134.96C134.808 61.5713 134.686 61.4486 134.686 61.2973V54.5886C134.686 54.4373 134.808 54.3146 134.96 54.3146C135.111 54.3146 135.234 54.4373 135.234 54.5886V61.0235H145.259V54.5886C145.259 54.4373 145.382 54.3146 145.533 54.3146C145.684 54.3146 145.807 54.4373 145.807 54.5886V61.2973C145.807 61.4486 145.684 61.5713 145.533 61.5713Z" fill="white" fill-opacity="0.75"/>
<path d="M143.752 61.3927C143.6 61.3927 143.478 61.27 143.478 61.1187V56.1394H136.972V61.1187C136.972 61.27 136.849 61.3927 136.698 61.3927C136.546 61.3927 136.424 61.27 136.424 61.1187V55.8656C136.424 55.7143 136.546 55.5916 136.698 55.5916H143.751C143.903 55.5916 144.025 55.7143 144.025 55.8656V61.1187C144.026 61.27 143.903 61.3927 143.752 61.3927Z" fill="white" fill-opacity="0.75"/>
<path d="M143.752 56.8203H136.698C136.59 56.8203 136.502 56.7327 136.502 56.6246C136.502 56.5165 136.59 56.429 136.698 56.429H143.752C143.86 56.429 143.947 56.5165 143.947 56.6246C143.947 56.7327 143.86 56.8203 143.752 56.8203Z" fill="white" fill-opacity="0.75"/>
<path d="M143.752 57.6093H136.698C136.59 57.6093 136.502 57.5218 136.502 57.4137C136.502 57.3056 136.59 57.2181 136.698 57.2181H143.752C143.86 57.2181 143.947 57.3056 143.947 57.4137C143.947 57.5218 143.86 57.6093 143.752 57.6093Z" fill="white" fill-opacity="0.75"/>
<path d="M143.752 58.3984H136.698C136.59 58.3984 136.502 58.3108 136.502 58.2028C136.502 58.0947 136.59 58.0071 136.698 58.0071H143.752C143.86 58.0071 143.947 58.0947 143.947 58.2028C143.947 58.3108 143.86 58.3984 143.752 58.3984Z" fill="white" fill-opacity="0.75"/>
<path d="M143.752 59.1873H136.698C136.59 59.1873 136.502 59.0997 136.502 58.9916C136.502 58.8836 136.59 58.796 136.698 58.796H143.752C143.86 58.796 143.947 58.8836 143.947 58.9916C143.947 59.0997 143.86 59.1873 143.752 59.1873Z" fill="white" fill-opacity="0.75"/>
<path d="M143.752 59.9763H136.698C136.59 59.9763 136.502 59.8888 136.502 59.7807C136.502 59.6726 136.59 59.5851 136.698 59.5851H143.752C143.86 59.5851 143.947 59.6726 143.947 59.7807C143.947 59.8888 143.86 59.9763 143.752 59.9763Z" fill="white" fill-opacity="0.75"/>
<path d="M143.752 60.7654H136.698C136.59 60.7654 136.502 60.6779 136.502 60.5698C136.502 60.4617 136.59 60.3741 136.698 60.3741H143.752C143.86 60.3741 143.947 60.4617 143.947 60.5698C143.947 60.6779 143.86 60.7654 143.752 60.7654Z" fill="white" fill-opacity="0.75"/>
<path d="M205.23 61.8469C205.079 61.8469 204.956 61.7242 204.956 61.5729V48.4451C204.956 48.2938 205.079 48.1711 205.23 48.1711C205.381 48.1711 205.504 48.2938 205.504 48.4451V61.5729C205.504 61.7242 205.381 61.8469 205.23 61.8469Z" fill="white" fill-opacity="0.75"/>
<path d="M205.23 51.1586C205.16 51.1586 205.09 51.1319 205.036 51.0785L203.961 50.0037C203.854 49.8967 203.854 49.7233 203.961 49.6163C204.068 49.5093 204.242 49.5093 204.349 49.6163L205.424 50.6911C205.531 50.798 205.531 50.9715 205.424 51.0785C205.37 51.1319 205.3 51.1586 205.23 51.1586Z" fill="white" fill-opacity="0.75"/>
<path d="M205.23 53.164C205.176 53.164 205.121 53.1481 205.074 53.115C204.95 53.0286 204.919 52.8579 205.005 52.7337L206.184 51.0385C206.27 50.9142 206.44 50.8836 206.565 50.97C206.689 51.0564 206.72 51.2271 206.633 51.3513L205.455 53.0464C205.402 53.1229 205.316 53.164 205.23 53.164Z" fill="white" fill-opacity="0.75"/>
<path d="M205.261 56.6942C205.238 56.6942 205.215 56.6913 205.192 56.6855C205.128 56.6688 203.607 56.2527 203.07 54.1373C202.524 51.9849 203.661 44.6506 204.759 43.2379C204.872 43.0929 204.992 42.9978 205.118 42.954C205.155 42.9358 205.196 42.9257 205.239 42.9257H205.283C205.326 42.9257 205.367 42.9358 205.404 42.954C205.53 42.998 205.65 43.0929 205.763 43.2379C206.862 44.6506 207.998 51.9849 207.452 54.1373C206.915 56.2527 205.394 56.6688 205.33 56.6855C205.307 56.6913 205.284 56.6942 205.261 56.6942ZM205.261 43.4923C204.976 43.7035 204.402 45.1747 203.924 48.0046C203.483 50.6152 203.353 53.0256 203.601 54.0026C203.997 55.5632 204.991 56.032 205.261 56.1324C205.536 56.0312 206.524 55.5665 206.921 54.0026C207.169 53.0256 207.039 50.6154 206.598 48.0046C206.12 45.1747 205.546 43.7035 205.261 43.4923Z" fill="white" fill-opacity="0.75"/>
<path d="M128.997 62.2086C128.846 62.2086 128.723 62.086 128.723 61.9346V48.8691C128.723 48.7178 128.846 48.5953 128.997 48.5953C129.148 48.5953 129.271 48.7178 129.271 48.8691V61.9346C129.271 62.086 129.148 62.2086 128.997 62.2086Z" fill="white" fill-opacity="0.75"/>
<path d="M128.997 51.5711C128.927 51.5711 128.857 51.5443 128.803 51.491L127.733 50.4212C127.626 50.3142 127.626 50.1407 127.733 50.0338C127.84 49.9268 128.014 49.9268 128.121 50.0338L129.191 51.1034C129.297 51.2104 129.297 51.3838 129.191 51.4908C129.137 51.5443 129.067 51.5711 128.997 51.5711Z" fill="white" fill-opacity="0.75"/>
<path d="M128.997 53.5671C128.943 53.5671 128.888 53.5512 128.841 53.5181C128.716 53.4317 128.686 53.2609 128.772 53.1368L129.945 51.4496C130.031 51.3253 130.202 51.2946 130.326 51.381C130.45 51.4675 130.481 51.6382 130.395 51.7623L129.222 53.4495C129.169 53.5259 129.083 53.5671 128.997 53.5671Z" fill="white" fill-opacity="0.75"/>
<path d="M129.028 57.0804C129.005 57.0804 128.982 57.0775 128.959 57.0717C128.895 57.055 127.381 56.6406 126.846 54.5346C126.302 52.3921 127.434 45.0919 128.528 43.6858C128.64 43.5413 128.76 43.4465 128.885 43.4028C128.922 43.3849 128.963 43.3746 129.006 43.3746H129.049C129.093 43.3746 129.134 43.3847 129.17 43.4028C129.296 43.4467 129.416 43.5413 129.528 43.686C130.622 45.0921 131.753 52.3923 131.21 54.5348C130.675 56.6408 129.161 57.0552 129.096 57.0719C129.074 57.0775 129.051 57.0804 129.028 57.0804ZM129.028 43.943C128.789 44.1357 128.213 45.3817 127.698 48.4329C127.259 51.0302 127.13 53.428 127.377 54.3999C127.772 55.9553 128.754 56.4179 129.028 56.5184C129.302 56.4177 130.284 55.9553 130.678 54.3999C130.925 53.428 130.796 51.0302 130.358 48.4329C129.843 45.3815 129.267 44.1357 129.028 43.943Z" fill="white" fill-opacity="0.75"/>
<path d="M166.507 61.5376H154.506C154.355 61.5376 154.232 61.4149 154.232 61.2636V49.8865C154.232 49.7353 154.355 49.6125 154.506 49.6125C154.658 49.6125 154.78 49.7351 154.78 49.8865V60.9897H166.233V49.8865C166.233 49.7353 166.356 49.6125 166.507 49.6125C166.658 49.6125 166.781 49.7351 166.781 49.8865V61.2636C166.781 61.4149 166.658 61.5376 166.507 61.5376Z" fill="white" fill-opacity="0.75"/>
<path d="M175.647 50.011H168.312C168.161 50.011 168.038 49.8883 168.038 49.7371C168.038 49.5858 168.161 49.4632 168.312 49.4632H175.278L172.966 41.8418H148.145L145.833 49.4632H152.742C152.893 49.4632 153.016 49.5858 153.016 49.7371C153.016 49.8883 152.893 50.011 152.742 50.011H145.464C145.377 50.011 145.296 49.9699 145.244 49.9002C145.192 49.8305 145.177 49.7406 145.202 49.6575L147.679 41.4883C147.714 41.3728 147.821 41.2938 147.941 41.2938H173.17C173.29 41.2938 173.397 41.3728 173.432 41.4883L175.909 49.6575C175.934 49.7406 175.919 49.8305 175.867 49.9002C175.815 49.9699 175.734 50.011 175.647 50.011Z" fill="white" fill-opacity="0.75"/>
<path d="M174.432 61.5376H146.546C146.395 61.5376 146.272 61.4149 146.272 61.2636V49.7371C146.272 49.5858 146.395 49.4633 146.546 49.4633C146.697 49.4633 146.82 49.5858 146.82 49.7371V60.9896H174.159L174.208 49.736C174.209 49.5852 174.331 49.4633 174.482 49.4633C174.482 49.4633 174.483 49.4633 174.483 49.4633C174.635 49.4639 174.757 49.5871 174.756 49.7384L174.706 61.2649C174.705 61.4156 174.583 61.5376 174.432 61.5376Z" fill="white" fill-opacity="0.75"/>
<path d="M162.676 61.5376C162.525 61.5376 162.402 61.4149 162.402 61.2636V54.2871H158.609V61.1321C158.609 61.2834 158.486 61.4061 158.335 61.4061C158.184 61.4061 158.061 61.2835 158.061 61.1321V54.0131C158.061 53.8618 158.184 53.7391 158.335 53.7391H162.676C162.828 53.7391 162.95 53.8618 162.95 54.0131V61.2636C162.95 61.4149 162.828 61.5376 162.676 61.5376Z" fill="white" fill-opacity="0.75"/>
<path d="M152.133 57.3117H148.939C148.788 57.3117 148.665 57.1892 148.665 57.0377V52.2705C148.665 52.1192 148.788 51.9965 148.939 51.9965H152.133C152.284 51.9965 152.407 52.1192 152.407 52.2705V57.0377C152.407 57.189 152.284 57.3117 152.133 57.3117ZM149.213 56.7637H151.859V52.5443H149.213V56.7637Z" fill="white" fill-opacity="0.75"/>
<path d="M172.042 57.3117H168.848C168.697 57.3117 168.574 57.1892 168.574 57.0377V52.2705C168.574 52.1192 168.697 51.9965 168.848 51.9965H172.042C172.193 51.9965 172.316 52.1192 172.316 52.2705V57.0377C172.315 57.189 172.193 57.3117 172.042 57.3117ZM169.122 56.7637H171.768V52.5443H169.122V56.7637Z" fill="white" fill-opacity="0.75"/>
<path d="M183.83 35.4161C183.679 35.4161 183.556 35.2934 183.556 35.1421V31.205C183.556 31.0537 183.679 30.931 183.83 30.931H186.5C186.651 30.931 186.774 31.0537 186.774 31.205V33.3798C186.774 33.5311 186.651 33.6536 186.5 33.6536C186.349 33.6536 186.226 33.5311 186.226 33.3798V31.479H184.104V35.1423C184.104 35.2934 183.981 35.4161 183.83 35.4161Z" fill="white" fill-opacity="0.75"/>
<path d="M186.338 31.4788H183.936C183.489 31.4788 183.125 31.1152 183.125 30.6681V30.657C183.125 30.2099 183.489 29.8463 183.936 29.8463H186.338C186.785 29.8463 187.149 30.2099 187.149 30.657V30.6681C187.149 31.1152 186.785 31.4788 186.338 31.4788ZM183.936 30.3942C183.791 30.3942 183.673 30.5121 183.673 30.6572V30.6682C183.673 30.8133 183.791 30.9311 183.936 30.9311H186.338C186.483 30.9311 186.601 30.8133 186.601 30.6682V30.6572C186.601 30.5121 186.483 30.3942 186.338 30.3942H183.936Z" fill="white" fill-opacity="0.75"/>
<path d="M180.952 61.5376H174.788C174.637 61.5376 174.514 61.4149 174.514 61.2636V55.5004C174.514 55.3491 174.637 55.2264 174.788 55.2264H180.952C181.103 55.2264 181.226 55.349 181.226 55.5004V61.2636C181.226 61.4149 181.103 61.5376 180.952 61.5376ZM175.062 60.9896H180.678V55.7743H175.062V60.9896Z" fill="white" fill-opacity="0.75"/>
<path d="M175.568 61.5376C175.417 61.5376 175.294 61.4149 175.294 61.2636V55.5004C175.294 55.3491 175.417 55.2264 175.568 55.2264C175.719 55.2264 175.842 55.349 175.842 55.5004V61.2636C175.842 61.4149 175.719 61.5376 175.568 61.5376Z" fill="white" fill-opacity="0.75"/>
<path d="M176.478 61.5376C176.327 61.5376 176.204 61.4149 176.204 61.2636V55.5004C176.204 55.3491 176.327 55.2264 176.478 55.2264C176.629 55.2264 176.752 55.349 176.752 55.5004V61.2636C176.752 61.4149 176.629 61.5376 176.478 61.5376Z" fill="white" fill-opacity="0.75"/>
<path d="M177.387 61.5376C177.236 61.5376 177.113 61.4149 177.113 61.2636V55.5004C177.113 55.3491 177.236 55.2264 177.387 55.2264C177.539 55.2264 177.661 55.349 177.661 55.5004V61.2636C177.661 61.4149 177.539 61.5376 177.387 61.5376Z" fill="white" fill-opacity="0.75"/>
<path d="M178.297 61.5376C178.146 61.5376 178.023 61.4149 178.023 61.2636V55.5004C178.023 55.3491 178.146 55.2264 178.297 55.2264C178.448 55.2264 178.571 55.349 178.571 55.5004V61.2636C178.571 61.4149 178.448 61.5376 178.297 61.5376Z" fill="white" fill-opacity="0.75"/>
<path d="M179.207 61.5376C179.055 61.5376 178.933 61.4149 178.933 61.2636V55.5004C178.933 55.3491 179.055 55.2264 179.207 55.2264C179.358 55.2264 179.481 55.349 179.481 55.5004V61.2636C179.481 61.4149 179.358 61.5376 179.207 61.5376Z" fill="white" fill-opacity="0.75"/>
<path d="M180.116 61.5376C179.965 61.5376 179.842 61.4149 179.842 61.2636V55.5004C179.842 55.3491 179.965 55.2264 180.116 55.2264C180.268 55.2264 180.39 55.349 180.39 55.5004V61.2636C180.39 61.4149 180.267 61.5376 180.116 61.5376Z" fill="white" fill-opacity="0.75"/>
<path d="M132.064 64C131.913 64 131.79 63.8775 131.79 63.726V57.3597C131.79 57.2085 131.913 57.0858 132.064 57.0858C132.215 57.0858 132.338 57.2083 132.338 57.3597V63.726C132.338 63.8773 132.215 64 132.064 64Z" fill="white" fill-opacity="0.75"/>
<path d="M132.064 58.7949C131.994 58.7949 131.924 58.7684 131.871 58.7152L131.25 58.0979C131.142 57.9912 131.142 57.8178 131.248 57.7105C131.355 57.6032 131.528 57.6027 131.636 57.7094L132.257 58.3267C132.364 58.4334 132.365 58.6068 132.258 58.7141C132.205 58.7679 132.134 58.7949 132.064 58.7949Z" fill="white" fill-opacity="0.75"/>
<path d="M132.064 59.8997C132.011 59.8997 131.958 59.8846 131.911 59.853C131.786 59.7685 131.752 59.5983 131.837 59.4728L132.58 58.368C132.665 58.2424 132.835 58.2093 132.961 58.2937C133.086 58.3781 133.119 58.5484 133.035 58.6738L132.291 59.7786C132.238 59.8573 132.152 59.8997 132.064 59.8997Z" fill="white" fill-opacity="0.75"/>
<path d="M132.064 60.7365C130.672 60.7365 129.54 59.6042 129.54 58.2122C129.54 56.8204 130.672 55.688 132.064 55.688C133.456 55.688 134.588 56.8204 134.588 58.2122C134.588 59.604 133.456 60.7365 132.064 60.7365ZM132.064 56.2358C130.974 56.2358 130.088 57.1224 130.088 58.2122C130.088 59.3019 130.974 60.1886 132.064 60.1886C133.154 60.1886 134.04 59.3021 134.04 58.2122C134.04 57.1225 133.154 56.2358 132.064 56.2358Z" fill="white" fill-opacity="0.75"/>
<path d="M105.756 37.4915C105.451 37.4915 105.152 37.3436 104.972 37.0709C104.687 36.6395 104.807 36.0568 105.238 35.772L115.694 28.8693C115.854 28.7633 116.042 28.7102 116.235 28.7158C116.428 28.7102 116.616 28.7632 116.776 28.8693L127.232 35.772C127.664 36.0568 127.783 36.6395 127.498 37.0707C127.213 37.5021 126.631 37.6213 126.199 37.3365L116.235 30.7584L106.271 37.3365C106.112 37.4414 105.933 37.4915 105.756 37.4915ZM105.54 36.2293C105.361 36.3476 105.311 36.5898 105.429 36.7689C105.548 36.948 105.79 36.9978 105.969 36.8794L116.084 30.2016C116.176 30.1412 116.295 30.1412 116.386 30.2016L126.501 36.8794C126.68 36.9978 126.923 36.9481 127.041 36.7689C127.159 36.5897 127.11 36.3476 126.93 36.2293L116.475 29.3266C116.407 29.2821 116.328 29.2611 116.246 29.2636C116.239 29.2639 116.232 29.2639 116.224 29.2636C116.142 29.2604 116.063 29.2821 115.996 29.3266L105.54 36.2293Z" fill="white" fill-opacity="0.75"/>
<path d="M125.743 61.6706H106.801C106.65 61.6706 106.527 61.5479 106.527 61.3966V36.6581C106.527 36.5068 106.65 36.3841 106.801 36.3841C106.953 36.3841 107.075 36.5068 107.075 36.6581V61.1226H125.469V36.8028C125.469 36.6515 125.592 36.5288 125.743 36.5288C125.895 36.5288 126.017 36.6515 126.017 36.8028V61.3966C126.017 61.5479 125.895 61.6706 125.743 61.6706Z" fill="white" fill-opacity="0.75"/>
<path d="M116.272 36.9321C115.141 36.9321 114.221 36.0118 114.221 34.8808C114.221 33.7496 115.141 32.8295 116.272 32.8295C117.403 32.8295 118.324 33.7498 118.324 34.8808C118.324 36.0118 117.403 36.9321 116.272 36.9321ZM116.272 33.3772C115.443 33.3772 114.769 34.0516 114.769 34.8806C114.769 35.7097 115.443 36.3841 116.272 36.3841C117.101 36.3841 117.776 35.7095 117.776 34.8806C117.776 34.0516 117.101 33.3772 116.272 33.3772Z" fill="white" fill-opacity="0.75"/>
<path d="M116.272 36.9321C116.121 36.9321 115.998 36.8095 115.998 36.6583V33.1034C115.998 32.9521 116.121 32.8294 116.272 32.8294C116.424 32.8294 116.546 32.9521 116.546 33.1034V36.6583C116.546 36.8094 116.424 36.9321 116.272 36.9321Z" fill="white" fill-opacity="0.75"/>
<path d="M118.05 35.1546H114.509C114.357 35.1546 114.235 35.0321 114.235 34.8806C114.235 34.7293 114.357 34.6066 114.509 34.6066H118.05C118.201 34.6066 118.324 34.7293 118.324 34.8806C118.324 35.0321 118.201 35.1546 118.05 35.1546Z" fill="white" fill-opacity="0.75"/>
<path d="M122.776 46.6706H119.224C119.073 46.6706 118.95 46.548 118.95 46.3966V40.4432C118.95 40.292 119.073 40.1693 119.224 40.1693H122.776C122.927 40.1693 123.05 40.292 123.05 40.4432V46.3966C123.05 46.548 122.927 46.6706 122.776 46.6706ZM119.498 46.1228H122.502V40.7174H119.498V46.1228Z" fill="white" fill-opacity="0.75"/>
<path d="M122.776 43.594H119.224C119.073 43.594 118.95 43.4713 118.95 43.32C118.95 43.1687 119.073 43.046 119.224 43.046H122.776C122.927 43.046 123.05 43.1687 123.05 43.32C123.05 43.4713 122.927 43.594 122.776 43.594Z" fill="white" fill-opacity="0.75"/>
<path d="M118.048 46.6706H114.496C114.345 46.6706 114.222 46.548 114.222 46.3966V40.4432C114.222 40.292 114.345 40.1693 114.496 40.1693H118.048C118.2 40.1693 118.322 40.292 118.322 40.4432V46.3966C118.322 46.548 118.2 46.6706 118.048 46.6706ZM114.77 46.1228H117.774V40.7174H114.77V46.1228Z" fill="white" fill-opacity="0.75"/>
<path d="M118.048 43.594H114.496C114.345 43.594 114.222 43.4713 114.222 43.32C114.222 43.1687 114.345 43.046 114.496 43.046H118.048C118.2 43.046 118.322 43.1687 118.322 43.32C118.322 43.4713 118.2 43.594 118.048 43.594Z" fill="white" fill-opacity="0.75"/>
<path d="M122.701 55.7693H119.149C118.998 55.7693 118.875 55.6466 118.875 55.4953V49.5419C118.875 49.3906 118.998 49.2679 119.149 49.2679H122.701C122.852 49.2679 122.975 49.3906 122.975 49.5419V55.4953C122.975 55.6466 122.852 55.7693 122.701 55.7693ZM119.423 55.2215H122.427V49.8161H119.423V55.2215Z" fill="white" fill-opacity="0.75"/>
<path d="M122.701 52.6925H119.149C118.998 52.6925 118.875 52.5698 118.875 52.4185C118.875 52.2672 118.998 52.1445 119.149 52.1445H122.701C122.852 52.1445 122.975 52.2672 122.975 52.4185C122.975 52.5698 122.852 52.6925 122.701 52.6925Z" fill="white" fill-opacity="0.75"/>
<path d="M117.973 55.7693H114.421C114.27 55.7693 114.147 55.6466 114.147 55.4953V49.5419C114.147 49.3906 114.27 49.2679 114.421 49.2679H117.973C118.125 49.2679 118.247 49.3906 118.247 49.5419V55.4953C118.247 55.6466 118.125 55.7693 117.973 55.7693ZM114.695 55.2215H117.699V49.8161H114.695V55.2215Z" fill="white" fill-opacity="0.75"/>
<path d="M117.973 52.6925H114.421C114.27 52.6925 114.147 52.5698 114.147 52.4185C114.147 52.2672 114.27 52.1445 114.421 52.1445H117.973C118.125 52.1445 118.247 52.2672 118.247 52.4185C118.247 52.5698 118.125 52.6925 117.973 52.6925Z" fill="white" fill-opacity="0.75"/>
<path d="M113.358 46.6706H109.806C109.655 46.6706 109.532 46.548 109.532 46.3966V40.4432C109.532 40.292 109.655 40.1693 109.806 40.1693H113.358C113.51 40.1693 113.632 40.292 113.632 40.4432V46.3966C113.632 46.548 113.509 46.6706 113.358 46.6706ZM110.08 46.1228H113.084V40.7174H110.08V46.1228Z" fill="white" fill-opacity="0.75"/>
<path d="M113.358 43.594H109.806C109.655 43.594 109.532 43.4713 109.532 43.32C109.532 43.1687 109.655 43.046 109.806 43.046H113.358C113.51 43.046 113.632 43.1687 113.632 43.32C113.632 43.4713 113.509 43.594 113.358 43.594Z" fill="white" fill-opacity="0.75"/>
<path d="M113.283 55.7693H109.731C109.58 55.7693 109.457 55.6466 109.457 55.4953V49.5419C109.457 49.3906 109.58 49.2679 109.731 49.2679H113.283C113.434 49.2679 113.557 49.3906 113.557 49.5419V55.4953C113.557 55.6466 113.434 55.7693 113.283 55.7693ZM110.005 55.2215H113.009V49.8161H110.005V55.2215Z" fill="white" fill-opacity="0.75"/>
<path d="M113.283 52.6925H109.731C109.58 52.6925 109.457 52.5698 109.457 52.4185C109.457 52.2672 109.58 52.1445 109.731 52.1445H113.283C113.434 52.1445 113.557 52.2672 113.557 52.4185C113.557 52.5698 113.434 52.6925 113.283 52.6925Z" fill="white" fill-opacity="0.75"/>
<path d="M106.801 38.4161H93.022C92.9149 38.4161 92.8176 38.3536 92.7729 38.2561C92.7284 38.1586 92.7446 38.0443 92.8147 37.963L99.961 29.6839C100.013 29.6237 100.089 29.589 100.168 29.589H114.686C114.837 29.589 114.96 29.7115 114.96 29.863C114.96 30.0143 114.837 30.137 114.686 30.137H100.294L93.6203 37.8682H106.801C106.953 37.8682 107.075 37.9909 107.075 38.1422C107.075 38.2934 106.953 38.4161 106.801 38.4161Z" fill="white" fill-opacity="0.75"/>
<path d="M106.801 61.6705H93.6751C93.5238 61.6705 93.4011 61.5478 93.4011 61.3965V38.142C93.4011 37.9907 93.5238 37.868 93.6751 37.868C93.8263 37.868 93.949 37.9907 93.949 38.142V61.1225H106.801C106.953 61.1225 107.075 61.2451 107.075 61.3965C107.075 61.548 106.953 61.6705 106.801 61.6705Z" fill="white" fill-opacity="0.75"/>
<path d="M103.087 61.6706C102.936 61.6706 102.814 61.5479 102.814 61.3966V52.0849H97.6072V61.3967C97.6072 61.548 97.4845 61.6707 97.3332 61.6707C97.1819 61.6707 97.0592 61.548 97.0592 61.3967V51.8111C97.0592 51.6598 97.1819 51.5371 97.3332 51.5371H103.087C103.239 51.5371 103.361 51.6598 103.361 51.8111V61.3967C103.361 61.5479 103.239 61.6706 103.087 61.6706Z" fill="white" fill-opacity="0.75"/>
<path d="M104.575 44.5993H96.0199C95.8686 44.5993 95.7459 44.4766 95.7459 44.3253V40.4434C95.7459 40.2921 95.8686 40.1694 96.0199 40.1694H104.575C104.726 40.1694 104.849 40.2921 104.849 40.4434V44.3253C104.849 44.4767 104.726 44.5993 104.575 44.5993ZM96.2937 44.0514H104.301V40.7174H96.2937V44.0514Z" fill="white" fill-opacity="0.75"/>
<path d="M104.575 41.453H96.0199C95.8686 41.453 95.7459 41.3304 95.7459 41.179C95.7459 41.0277 95.8686 40.905 96.0199 40.905H104.575C104.726 40.905 104.849 41.0277 104.849 41.179C104.849 41.3304 104.726 41.453 104.575 41.453Z" fill="white" fill-opacity="0.75"/>
<path d="M100.297 44.5992C100.146 44.5992 100.023 44.4765 100.023 44.3252V41.2398C100.023 41.0885 100.146 40.9658 100.297 40.9658C100.449 40.9658 100.571 41.0884 100.571 41.2398V44.3252C100.571 44.4767 100.449 44.5992 100.297 44.5992Z" fill="white" fill-opacity="0.75"/>
<path d="M149.839 19.4437H144.153C142.577 19.4437 141.295 18.1614 141.295 16.5853C141.295 15.1253 142.382 13.9185 143.808 13.7479C144.101 12.4883 145.246 11.5634 146.558 11.5634C147.899 11.5634 149.033 12.4947 149.314 13.7755C149.487 13.7433 149.663 13.7269 149.839 13.7269C151.415 13.7269 152.698 15.0092 152.698 16.5852C152.698 18.1614 151.415 19.4437 149.839 19.4437ZM146.557 12.1112C145.441 12.1112 144.474 12.9423 144.309 14.0444L144.275 14.2675L144.05 14.2774C142.812 14.332 141.843 15.3456 141.843 16.5853C141.843 17.8593 142.879 18.8958 144.153 18.8958H149.839C151.113 18.8958 152.15 17.8593 152.15 16.5853C152.15 15.3114 151.113 14.2749 149.839 14.2749C149.612 14.2749 149.387 14.3081 149.17 14.3736L148.854 14.4692L148.819 14.1406C148.695 12.9836 147.723 12.1112 146.557 12.1112Z" fill="white" fill-opacity="0.75"/>
<path d="M168.774 25.6091H163.088C161.512 25.6091 160.23 24.3269 160.23 22.7508C160.23 21.1748 161.512 19.8925 163.088 19.8925C163.265 19.8925 163.441 19.9089 163.614 19.9412C163.894 18.6605 165.029 17.729 166.37 17.729C167.682 17.729 168.827 18.6539 169.12 19.9136C170.545 20.0841 171.633 21.2909 171.633 22.751C171.633 24.3269 170.35 25.6091 168.774 25.6091ZM163.088 20.4402C161.814 20.4402 160.778 21.4767 160.778 22.7507C160.778 24.0246 161.814 25.0612 163.088 25.0612H168.774C170.048 25.0612 171.085 24.0246 171.085 22.7507C171.085 21.5111 170.115 20.4974 168.878 20.4428L168.652 20.4328L168.619 20.2097C168.453 19.1076 167.487 18.2765 166.37 18.2765C165.205 18.2765 164.233 19.1489 164.109 20.3058L164.074 20.6345L163.758 20.5388C163.541 20.4734 163.316 20.4402 163.088 20.4402Z" fill="white" fill-opacity="0.75"/>
<path d="M192.969 6.28711C192.941 8.11159 191.484 9.56813 189.66 9.59592C187.835 9.6237 186.378 8.06951 186.351 6.28711C186.323 4.46246 187.877 3.0056 189.66 2.9783C191.484 2.95052 192.941 4.5047 192.969 6.28711C192.972 6.53926 193.364 6.53958 193.36 6.28711C193.334 4.59111 192.202 3.1312 190.559 2.69708C188.914 2.26232 187.178 3.09731 186.382 4.56878C185.572 6.06788 185.977 7.9603 187.229 9.07635C188.5 10.2089 190.436 10.2628 191.812 9.29638C192.789 8.60979 193.342 7.46965 193.36 6.28711C193.364 6.03463 192.972 6.03512 192.969 6.28711Z" fill="white" fill-opacity="0.75"/>
<path d="M184.764 2.62093C185.293 3.04638 185.823 3.47166 186.353 3.89711C186.548 4.05354 186.826 3.77842 186.63 3.62038C186.1 3.19494 185.57 2.76965 185.04 2.34421C184.846 2.18778 184.567 2.46289 184.764 2.62093Z" fill="white" fill-opacity="0.75"/>
<path d="M188.104 2.49467C187.798 1.89385 187.493 1.29302 187.188 0.69219C187.074 0.467181 186.736 0.66521 186.85 0.889738C187.155 1.49057 187.461 2.09139 187.766 2.69222C187.88 2.91723 188.218 2.71904 188.104 2.49467Z" fill="white" fill-opacity="0.75"/>
<path d="M183.778 7.82144C184.449 7.66822 185.12 7.515 185.792 7.36179C186.038 7.30557 185.933 6.92831 185.688 6.98436C185.016 7.13758 184.345 7.2908 183.674 7.44401C183.428 7.50023 183.532 7.87749 183.778 7.82144Z" fill="white" fill-opacity="0.75"/>
<path d="M185.783 5.19227C185.115 5.03969 184.446 4.88712 183.778 4.73454C183.532 4.67849 183.428 5.05575 183.674 5.11197C184.342 5.26454 185.011 5.41712 185.679 5.56969C185.925 5.62575 186.029 5.24848 185.783 5.19227Z" fill="white" fill-opacity="0.75"/>
<path d="M189.466 0.189234C189.466 0.896383 189.466 1.60369 189.466 2.31084C189.466 2.56315 189.857 2.56315 189.857 2.31084C189.857 1.60369 189.857 0.896383 189.857 0.189234C189.857 -0.0630781 189.466 -0.0630781 189.466 0.189234Z" fill="white" fill-opacity="0.75"/>
<path d="M191.605 2.69229C191.894 2.09146 192.183 1.49063 192.473 0.889807C192.582 0.663513 192.244 0.465002 192.135 0.69226C191.845 1.29309 191.556 1.89392 191.267 2.49474C191.158 2.72104 191.495 2.91955 191.605 2.69229Z" fill="white" fill-opacity="0.75"/>
<path d="M185.04 10.2117C185.57 9.78929 186.1 9.36674 186.63 8.94434C186.827 8.78695 186.548 8.51199 186.353 8.66762C185.823 9.09001 185.293 9.51257 184.764 9.93496C184.566 10.0922 184.845 10.3673 185.04 10.2117Z" fill="white" fill-opacity="0.75"/>
<path d="M195.649 7.44401C194.977 7.2908 194.306 7.13758 193.635 6.98436C193.389 6.92831 193.285 7.30557 193.531 7.36179C194.202 7.515 194.873 7.66822 195.545 7.82144C195.79 7.87749 195.895 7.50023 195.649 7.44401Z" fill="white" fill-opacity="0.75"/>
<path d="M192.607 8.87586C193.165 9.32122 193.724 9.76658 194.282 10.2118C194.477 10.3674 194.756 10.0925 194.559 9.93506C194 9.4897 193.442 9.0445 192.884 8.59914C192.688 8.44351 192.41 8.71847 192.607 8.87586Z" fill="white" fill-opacity="0.75"/>
<path d="M193.635 5.5715C194.306 5.41828 194.977 5.26507 195.649 5.11185C195.895 5.05563 195.79 4.67837 195.545 4.73442C194.873 4.88764 194.202 5.04086 193.531 5.19408C193.285 5.25029 193.389 5.62755 193.635 5.5715Z" fill="white" fill-opacity="0.75"/>
<path d="M194.282 2.34425C193.749 2.7697 193.215 3.19498 192.682 3.62043C192.485 3.77782 192.763 4.05278 192.959 3.89715C193.492 3.47171 194.026 3.04642 194.559 2.62098C194.756 2.46358 194.477 2.18863 194.282 2.34425Z" fill="white" fill-opacity="0.75"/>
<path d="M192.472 11.666C192.167 11.0321 191.862 10.3982 191.557 9.76428C191.447 9.53702 191.11 9.73553 191.219 9.96183C191.524 10.5957 191.829 11.2297 192.135 11.8636C192.244 12.0908 192.582 11.8923 192.472 11.666Z" fill="white" fill-opacity="0.75"/>
<path d="M189.466 10.2689C189.466 10.9682 189.466 11.6673 189.466 12.3666C189.466 12.6189 189.857 12.6189 189.857 12.3666C189.857 11.6673 189.857 10.9682 189.857 10.2689C189.857 10.0166 189.466 10.0166 189.466 10.2689Z" fill="white" fill-opacity="0.75"/>
<path d="M187.188 11.8635C187.493 11.2593 187.798 10.6553 188.104 10.0511C188.217 9.82641 187.88 9.62838 187.766 9.85355C187.46 10.4577 187.155 11.0618 186.85 11.666C186.736 11.8907 187.074 12.0889 187.188 11.8635Z" fill="white" fill-opacity="0.75"/>
<path d="M116.994 17.2604H111.584C110.077 17.2604 108.851 16.0345 108.851 14.5275C108.851 13.0205 110.077 11.7946 111.584 11.7946C111.749 11.7946 111.913 11.8094 112.074 11.8388C112.347 10.6206 113.429 9.73615 114.706 9.73615C115.957 9.73615 117.05 10.6161 117.333 11.8158C118.692 11.9829 119.727 13.1347 119.727 14.5275C119.727 16.0343 118.501 17.2604 116.994 17.2604ZM111.584 12.3423C110.379 12.3423 109.399 13.3225 109.399 14.5273C109.399 15.7322 110.379 16.7124 111.584 16.7124H116.994C118.199 16.7124 119.179 15.7322 119.179 14.5273C119.179 13.3551 118.262 12.3964 117.092 12.3449L116.867 12.3349L116.833 12.1118C116.677 11.0697 115.762 10.2837 114.707 10.2837C113.605 10.2837 112.686 11.1087 112.569 12.2026L112.533 12.5313L112.217 12.4358C112.012 12.3738 111.799 12.3423 111.584 12.3423Z" fill="white" fill-opacity="0.75"/>
<path d="M47.9446 63.452H13.7652C13.6139 63.452 13.4912 63.5745 13.4912 63.726C13.4912 63.8772 13.6139 64 13.7652 64H47.9446C48.0959 64 48.2186 63.8774 48.2186 63.726C48.2186 63.5747 48.0959 63.452 47.9446 63.452Z" fill="white" fill-opacity="0.75"/>
<path d="M37.049 63.452H0.273996C0.122705 63.452 0 63.5746 0 63.726C0 63.8773 0.122705 64 0.273996 64H37.0488C37.2001 64 37.3228 63.8775 37.3228 63.726C37.3228 63.5747 37.2001 63.452 37.049 63.452Z" fill="white" fill-opacity="0.75"/>
<path d="M87.0707 63.452H79.3149C79.1636 63.452 79.0409 63.5745 79.0409 63.726C79.0409 63.8772 79.1636 64 79.3149 64H87.0707C87.222 64 87.3447 63.8774 87.3447 63.726C87.3447 63.5747 87.222 63.452 87.0707 63.452Z" fill="white" fill-opacity="0.75"/>
<path d="M94.0707 63.452H86.3149C86.1636 63.452 86.0409 63.5745 86.0409 63.726C86.0409 63.8772 86.1636 64 86.3149 64H94.0707C94.222 64 94.3447 63.8774 94.3447 63.726C94.3447 63.5747 94.222 63.452 94.0707 63.452Z" fill="white" fill-opacity="0.75"/>
<path d="M74.4018 63.452H59.3478C59.1966 63.452 59.0739 63.5745 59.0739 63.726C59.0739 63.8772 59.1966 64 59.3478 64H74.4018C74.5531 64 74.6758 63.8774 74.6758 63.726C74.6756 63.5747 74.5529 63.452 74.4018 63.452Z" fill="white" fill-opacity="0.75"/>
<path d="M82.1424 38.6223C81.9652 38.6223 81.786 38.5721 81.6275 38.4674L71.6631 31.8893L61.6988 38.4674C61.4905 38.6049 61.2403 38.6531 60.9945 38.6027C60.7487 38.5524 60.5376 38.4099 60.4001 38.2016C60.2625 37.9933 60.2145 37.7431 60.2649 37.4974C60.3152 37.2516 60.4576 37.0404 60.6661 36.903L71.1219 30.0003C71.2825 29.8943 71.4715 29.8414 71.6633 29.8467C71.8589 29.8416 72.0441 29.8943 72.2047 30.0003L82.6605 36.903C83.0917 37.1877 83.211 37.7704 82.9263 38.2018C82.7461 38.4743 82.447 38.6223 82.1424 38.6223ZM71.6631 31.2871C71.7157 31.2871 71.7683 31.3022 71.8141 31.3323L81.9292 38.0102C82.1083 38.1284 82.3505 38.0791 82.4689 37.8997C82.5872 37.7205 82.5376 37.4783 82.3584 37.3599L71.9026 30.4572C71.8355 30.4129 71.7563 30.3915 71.6741 30.3942C71.6668 30.3946 71.6596 30.3946 71.6522 30.3942C71.5698 30.3917 71.491 30.4127 71.4237 30.457L60.9679 37.3597C60.8816 37.4166 60.8225 37.5044 60.8015 37.6069C60.7806 37.7094 60.8004 37.8133 60.8572 37.8995C60.9141 37.9858 61.0019 38.0449 61.1044 38.0658C61.2069 38.0866 61.3108 38.0669 61.397 38.01L71.5122 31.3322C71.5579 31.3023 71.6105 31.2871 71.6631 31.2871Z" fill="white" fill-opacity="0.75"/>
<path d="M48.0473 50.9647C47.9019 50.9647 47.76 50.9225 47.6364 50.8409L40.5269 46.1473L33.4173 50.8409C33.2506 50.9509 33.0505 50.9895 32.8536 50.9492C32.657 50.909 32.4881 50.7948 32.3779 50.6281C32.15 50.283 32.2454 49.8167 32.5905 49.5888L40.0955 44.6343C40.2237 44.5498 40.3743 44.5082 40.5267 44.5113C40.6808 44.5077 40.83 44.5498 40.958 44.6343L48.4629 49.5888C48.8081 49.8167 48.9035 50.283 48.6756 50.6281C48.5654 50.7948 48.3966 50.9088 48.1999 50.9492C48.1491 50.9596 48.0979 50.9647 48.0473 50.9647ZM40.5267 45.5451C40.5794 45.5451 40.6319 45.5602 40.6777 45.5904L47.9382 50.3835C47.9827 50.4129 48.0367 50.423 48.09 50.4122C48.1433 50.4013 48.1889 50.3707 48.2183 50.3262C48.2479 50.2815 48.258 50.2275 48.2471 50.1742C48.2362 50.1209 48.2056 50.0753 48.1608 50.0459L40.6559 45.0914C40.612 45.0623 40.5672 45.0581 40.5375 45.0589C40.5303 45.0592 40.523 45.0592 40.5158 45.0589C40.4856 45.0578 40.4413 45.0625 40.3973 45.0914L32.8925 50.0459C32.8478 50.0755 32.8171 50.1209 32.8062 50.1742C32.7953 50.2275 32.8056 50.2815 32.835 50.3262C32.8645 50.3708 32.91 50.4013 32.9633 50.4122C33.0166 50.4232 33.0706 50.4129 33.1151 50.3835L40.3756 45.5904C40.4215 45.5603 40.4742 45.5451 40.5267 45.5451Z" fill="white" fill-opacity="0.75"/>
<path d="M81.0968 46.4758H62.1548C62.0035 46.4758 61.8808 46.3533 61.8808 46.2018V37.8381C61.8808 37.6868 62.0035 37.5641 62.1548 37.5641C62.3061 37.5641 62.4288 37.6868 62.4288 37.8381V45.9278H80.823V37.7888C80.823 37.6375 80.9457 37.515 81.097 37.515C81.2483 37.515 81.371 37.6375 81.371 37.7888V46.2017C81.3708 46.3533 81.2481 46.4758 81.0968 46.4758Z" fill="white" fill-opacity="0.75"/>
<path d="M81.0968 61.6141H62.1548C62.0035 61.6141 61.8808 61.4915 61.8808 61.3401V50.0289C61.8808 49.8776 62.0035 49.7549 62.1548 49.7549C62.3061 49.7549 62.4288 49.8776 62.4288 50.0289V61.0662H80.823V49.9624C80.823 49.8111 80.9457 49.6884 81.097 49.6884C81.2483 49.6884 81.371 49.8111 81.371 49.9624V61.3401C81.3708 61.4915 81.2481 61.6141 81.0968 61.6141Z" fill="white" fill-opacity="0.75"/>
<path d="M71.6259 38.0629C70.4947 38.0629 69.5746 37.1426 69.5746 36.0115C69.5746 34.8803 70.4949 33.9602 71.6259 33.9602C72.757 33.9602 73.6773 34.8805 73.6773 36.0115C73.6771 37.1428 72.757 38.0629 71.6259 38.0629ZM71.6259 34.508C70.7968 34.508 70.1224 35.1824 70.1224 36.0115C70.1224 36.8405 70.7968 37.5149 71.6259 37.5149C72.4549 37.5149 73.1295 36.8405 73.1295 36.0115C73.1293 35.1826 72.4548 34.508 71.6259 34.508Z" fill="white" fill-opacity="0.75"/>
<path d="M71.6259 38.0629C71.4746 38.0629 71.3519 37.9402 71.3519 37.7889V34.234C71.3519 34.0827 71.4746 33.96 71.6259 33.96C71.7772 33.96 71.8999 34.0827 71.8999 34.234V37.7889C71.8997 37.9403 71.777 38.0629 71.6259 38.0629Z" fill="white" fill-opacity="0.75"/>
<path d="M73.3896 36.2855H69.8484C69.6971 36.2855 69.5744 36.1629 69.5744 36.0115C69.5744 35.8602 69.6971 35.7375 69.8484 35.7375H73.3896C73.5409 35.7375 73.6636 35.8602 73.6636 36.0115C73.6635 36.1629 73.5408 36.2855 73.3896 36.2855Z" fill="white" fill-opacity="0.75"/>
<path d="M40.5556 51.9127C39.4245 51.9127 38.5042 50.9925 38.5042 49.8613C38.5042 48.7302 39.4245 47.8101 40.5556 47.8101C41.6868 47.8101 42.6069 48.7303 42.6069 49.8613C42.6069 50.9925 41.6866 51.9127 40.5556 51.9127ZM40.5556 48.3579C39.7266 48.3579 39.052 49.0323 39.052 49.8613C39.052 50.6904 39.7266 51.3648 40.5556 51.3648C41.3847 51.3648 42.0591 50.6904 42.0591 49.8613C42.0591 49.0323 41.3845 48.3579 40.5556 48.3579Z" fill="white" fill-opacity="0.75"/>
<path d="M40.5556 51.9128C40.4043 51.9128 40.2816 51.7901 40.2816 51.6388V48.0839C40.2816 47.9326 40.4043 47.8099 40.5556 47.8099C40.7069 47.8099 40.8296 47.9326 40.8296 48.0839V51.6388C40.8295 51.7901 40.7068 51.9128 40.5556 51.9128Z" fill="white" fill-opacity="0.75"/>
<path d="M42.3193 50.1353H38.7781C38.6268 50.1353 38.5041 50.0126 38.5041 49.8613C38.5041 49.71 38.6268 49.5873 38.7781 49.5873H42.3193C42.4706 49.5873 42.5933 49.71 42.5933 49.8613C42.5933 50.0126 42.4706 50.1353 42.3193 50.1353Z" fill="white" fill-opacity="0.75"/>
<path d="M68.4704 43.6457H65.2792C65.1279 43.6457 65.0052 43.523 65.0052 43.3717V40.1804C65.0052 40.0292 65.1279 39.9066 65.2792 39.9066H68.4704C68.6217 39.9066 68.7444 40.0292 68.7444 40.1804V43.3717C68.7443 43.523 68.6216 43.6457 68.4704 43.6457ZM65.553 43.0979H68.1964V40.4544H65.553V43.0979Z" fill="white" fill-opacity="0.75"/>
<path d="M78.1136 43.6457H74.9223C74.771 43.6457 74.6483 43.523 74.6483 43.3717V40.1804C74.6483 40.0292 74.771 39.9066 74.9223 39.9066H78.1136C78.2649 39.9066 78.3876 40.0292 78.3876 40.1804V43.3717C78.3876 43.523 78.2649 43.6457 78.1136 43.6457ZM75.1963 43.0979H77.8397V40.4544H75.1963V43.0979Z" fill="white" fill-opacity="0.75"/>
<path d="M82.5537 50.2364H60.7001C60.6103 50.2364 60.5262 50.1924 60.475 50.1185C60.4239 50.0446 60.412 49.9505 60.4436 49.8664L61.8536 46.1058C61.8938 45.9988 61.9959 45.928 62.1101 45.928H81.1439C81.258 45.928 81.3602 45.9988 81.4003 46.1058L82.8103 49.8664C82.8419 49.9505 82.8301 50.0446 82.779 50.1185C82.7277 50.1924 82.6436 50.2364 82.5537 50.2364ZM61.0954 49.6886H82.1586L80.954 46.4758H62.2999L61.0954 49.6886Z" fill="white" fill-opacity="0.75"/>
<path d="M69.6035 61.614C69.4522 61.614 69.3295 61.4915 69.3295 61.34V53.9133H65.576V61.34C65.576 61.4913 65.4533 61.614 65.302 61.614C65.1507 61.614 65.028 61.4915 65.028 61.34V53.6445C65.028 53.4932 65.1551 53.3655 65.3063 53.3655H69.595C69.7506 53.3655 69.8772 53.4925 69.8772 53.6486V61.3402C69.8775 61.4915 69.7548 61.614 69.6035 61.614Z" fill="white" fill-opacity="0.75"/>
<path d="M78.1484 56.5799H72.582C72.4307 56.5799 72.308 56.4572 72.308 56.306V52.1363C72.308 51.985 72.4307 51.8623 72.582 51.8623H78.1484C78.2997 51.8623 78.4224 51.985 78.4224 52.1363V56.3061C78.4223 56.4572 78.2996 56.5799 78.1484 56.5799ZM72.8558 56.0321H77.8743V52.4101H72.8558V56.0321Z" fill="white" fill-opacity="0.75"/>
<path d="M78.1136 53.2428H72.582C72.4307 53.2428 72.308 53.1203 72.308 52.9688C72.308 52.8175 72.4307 52.6948 72.582 52.6948H78.1137C78.265 52.6948 78.3877 52.8174 78.3877 52.9688C78.3876 53.1201 78.2649 53.2428 78.1136 53.2428Z" fill="white" fill-opacity="0.75"/>
<path d="M68.4704 41.2175H65.2792C65.1279 41.2175 65.0052 41.0948 65.0052 40.9435C65.0052 40.7922 65.1279 40.6695 65.2792 40.6695H68.4704C68.6217 40.6695 68.7444 40.7922 68.7444 40.9435C68.7443 41.0948 68.6216 41.2175 68.4704 41.2175Z" fill="white" fill-opacity="0.75"/>
<path d="M78.1136 41.2175H74.9223C74.771 41.2175 74.6483 41.0948 74.6483 40.9435C74.6483 40.7922 74.771 40.6695 74.9223 40.6695H78.1136C78.2649 40.6695 78.3876 40.7922 78.3876 40.9435C78.3876 41.0948 78.2649 41.2175 78.1136 41.2175Z" fill="white" fill-opacity="0.75"/>
<path d="M14.2387 55.2253C14.1945 55.2253 14.15 55.2208 14.1059 55.2118C13.9347 55.1768 13.7875 55.0774 13.6917 54.9322C13.4935 54.6318 13.5764 54.226 13.8768 54.0275L19.8506 50.0836C19.9619 50.0102 20.0921 49.973 20.2246 49.9765C20.3589 49.9728 20.4876 50.0102 20.5987 50.0838L26.5724 54.0275C26.8729 54.2258 26.956 54.6317 26.7576 54.9322C26.6619 55.0774 26.5148 55.1766 26.3436 55.2118C26.1724 55.2468 25.9981 55.2134 25.8529 55.1173L20.2246 51.4017L14.5964 55.1173C14.4888 55.1885 14.3651 55.2253 14.2387 55.2253ZM20.2091 50.5243C20.1884 50.5243 20.1692 50.53 20.1525 50.541L14.1786 54.4847C14.1311 54.516 14.1174 54.5829 14.1488 54.6304C14.1693 54.6615 14.1993 54.6717 14.2154 54.675C14.2315 54.6784 14.2629 54.6808 14.2943 54.6603L20.0735 50.8449C20.1651 50.7845 20.2839 50.7845 20.3755 50.8449L26.1547 54.6601C26.1859 54.6807 26.2174 54.6782 26.2336 54.6749C26.2496 54.6717 26.2797 54.6614 26.3002 54.6302C26.3317 54.5827 26.318 54.5159 26.2705 54.4844L20.2966 50.5407C20.2741 50.5258 20.2505 50.5235 20.2354 50.524C20.228 50.5243 20.221 50.5243 20.2136 50.524C20.2123 50.5243 20.2107 50.5243 20.2091 50.5243Z" fill="white" fill-opacity="0.75"/>
<path d="M20.2463 54.7767C19.6853 54.7767 19.2291 54.3204 19.2291 53.7596C19.2291 53.1988 19.6853 52.7425 20.2463 52.7425C20.8072 52.7425 21.2635 53.1988 21.2635 53.7596C21.2635 54.3204 20.8072 54.7767 20.2463 54.7767ZM20.2463 53.2903C19.9876 53.2903 19.7771 53.5009 19.7771 53.7596C19.7771 54.0183 19.9876 54.2289 20.2463 54.2289C20.5051 54.2289 20.7156 54.0183 20.7156 53.7596C20.7156 53.5009 20.5051 53.2903 20.2463 53.2903Z" fill="white" fill-opacity="0.75"/>
<path d="M25.5328 61.5713H14.9597C14.8084 61.5713 14.6857 61.4486 14.6857 61.2973V54.5886C14.6857 54.4373 14.8084 54.3146 14.9597 54.3146C15.111 54.3146 15.2337 54.4373 15.2337 54.5886V61.0235H25.259V54.5886C25.259 54.4373 25.3817 54.3146 25.533 54.3146C25.6843 54.3146 25.807 54.4373 25.807 54.5886V61.2973C25.8068 61.4486 25.6841 61.5713 25.5328 61.5713Z" fill="white" fill-opacity="0.75"/>
<path d="M23.7516 61.3927C23.6003 61.3927 23.4776 61.27 23.4776 61.1187V56.1394H16.9716V61.1187C16.9716 61.27 16.8489 61.3927 16.6976 61.3927C16.5463 61.3927 16.4236 61.27 16.4236 61.1187V55.8656C16.4236 55.7143 16.5463 55.5916 16.6976 55.5916H23.7514C23.9027 55.5916 24.0252 55.7143 24.0252 55.8656V61.1187C24.0256 61.27 23.9029 61.3927 23.7516 61.3927Z" fill="white" fill-opacity="0.75"/>
<path d="M23.7516 56.8203H16.6978C16.5897 56.8203 16.5021 56.7327 16.5021 56.6246C16.5021 56.5165 16.5897 56.429 16.6978 56.429H23.7516C23.8597 56.429 23.9472 56.5165 23.9472 56.6246C23.9472 56.7327 23.8597 56.8203 23.7516 56.8203Z" fill="white" fill-opacity="0.75"/>
<path d="M23.7516 57.6093H16.6978C16.5897 57.6093 16.5021 57.5218 16.5021 57.4137C16.5021 57.3056 16.5897 57.2181 16.6978 57.2181H23.7516C23.8597 57.2181 23.9472 57.3056 23.9472 57.4137C23.9472 57.5218 23.8597 57.6093 23.7516 57.6093Z" fill="white" fill-opacity="0.75"/>
<path d="M23.7516 58.3984H16.6978C16.5897 58.3984 16.5021 58.3108 16.5021 58.2028C16.5021 58.0947 16.5897 58.0071 16.6978 58.0071H23.7516C23.8597 58.0071 23.9472 58.0947 23.9472 58.2028C23.9472 58.3108 23.8597 58.3984 23.7516 58.3984Z" fill="white" fill-opacity="0.75"/>
<path d="M23.7516 59.1873H16.6978C16.5897 59.1873 16.5021 59.0997 16.5021 58.9916C16.5021 58.8836 16.5897 58.796 16.6978 58.796H23.7516C23.8597 58.796 23.9472 58.8836 23.9472 58.9916C23.9472 59.0997 23.8597 59.1873 23.7516 59.1873Z" fill="white" fill-opacity="0.75"/>
<path d="M23.7516 59.9763H16.6978C16.5897 59.9763 16.5021 59.8888 16.5021 59.7807C16.5021 59.6726 16.5897 59.5851 16.6978 59.5851H23.7516C23.8597 59.5851 23.9472 59.6726 23.9472 59.7807C23.9472 59.8888 23.8597 59.9763 23.7516 59.9763Z" fill="white" fill-opacity="0.75"/>
<path d="M23.7516 60.7654H16.6978C16.5897 60.7654 16.5021 60.6779 16.5021 60.5698C16.5021 60.4617 16.5897 60.3741 16.6978 60.3741H23.7516C23.8597 60.3741 23.9472 60.4617 23.9472 60.5698C23.9472 60.6779 23.8597 60.7654 23.7516 60.7654Z" fill="white" fill-opacity="0.75"/>
<path d="M85.23 61.8469C85.0787 61.8469 84.956 61.7242 84.956 61.5729V48.4451C84.956 48.2938 85.0787 48.1711 85.23 48.1711C85.3813 48.1711 85.504 48.2938 85.504 48.4451V61.5729C85.504 61.7242 85.3813 61.8469 85.23 61.8469Z" fill="white" fill-opacity="0.75"/>
<path d="M85.2301 51.1586C85.16 51.1586 85.0898 51.1319 85.0364 51.0785L83.9614 50.0037C83.8545 49.8967 83.8545 49.7233 83.9614 49.6163C84.0682 49.5093 84.2417 49.5093 84.3488 49.6163L85.4237 50.6911C85.5307 50.798 85.5307 50.9715 85.4237 51.0785C85.3703 51.1319 85.3001 51.1586 85.2301 51.1586Z" fill="white" fill-opacity="0.75"/>
<path d="M85.2299 53.164C85.1759 53.164 85.1215 53.1481 85.0738 53.115C84.9496 53.0286 84.9188 52.8579 85.0052 52.7337L86.1835 51.0385C86.2698 50.9142 86.4405 50.8836 86.5648 50.97C86.689 51.0564 86.7198 51.2271 86.6334 51.3513L85.455 53.0464C85.4017 53.1229 85.3164 53.164 85.2299 53.164Z" fill="white" fill-opacity="0.75"/>
<path d="M85.261 56.6942C85.2379 56.6942 85.2149 56.6913 85.1924 56.6855C85.128 56.6688 83.6071 56.2527 83.0702 54.1373C82.5238 51.9849 83.6606 44.6506 84.7594 43.2379C84.8723 43.0929 84.9925 42.9978 85.1182 42.954C85.1547 42.9358 85.1959 42.9257 85.2395 42.9257H85.2827C85.3262 42.9257 85.3675 42.9358 85.4039 42.954C85.5297 42.998 85.6498 43.0929 85.7627 43.2379C86.8616 44.6506 87.9984 51.9849 87.452 54.1373C86.9151 56.2527 85.3941 56.6688 85.3297 56.6855C85.3071 56.6913 85.284 56.6942 85.261 56.6942ZM85.261 43.4923C84.9758 43.7035 84.4016 45.1747 83.9236 48.0046C83.4828 50.6152 83.3532 53.0256 83.6011 54.0026C83.9972 55.5632 84.9915 56.032 85.2613 56.1324C85.5364 56.0312 86.524 55.5665 86.9209 54.0026C87.1688 53.0256 87.0392 50.6154 86.5984 48.0046C86.1204 45.1747 85.5462 43.7035 85.261 43.4923Z" fill="white" fill-opacity="0.75"/>
<path d="M8.99702 64C8.84572 64 8.72302 63.8793 8.72302 63.7302V50.8649C8.72302 50.7159 8.84572 50.5953 8.99702 50.5953C9.14831 50.5953 9.27101 50.7159 9.27101 50.8649V63.7302C9.27085 63.8793 9.14815 64 8.99702 64Z" fill="white" fill-opacity="0.75"/>
<path d="M8.997 52.5711C8.92698 52.5711 8.85679 52.5443 8.80331 52.491L7.73335 51.4212C7.62638 51.3142 7.62639 51.1407 7.73319 51.0338C7.84015 50.9268 8.01361 50.9268 8.12057 51.0338L9.19053 52.1034C9.29749 52.2104 9.29749 52.3838 9.19069 52.4908C9.13721 52.5443 9.06702 52.5711 8.997 52.5711Z" fill="white" fill-opacity="0.75"/>
<path d="M8.99668 54.5671C8.94271 54.5671 8.88827 54.5512 8.84057 54.5181C8.71642 54.4317 8.68559 54.2609 8.77199 54.1368L9.94474 52.4496C10.0311 52.3253 10.2017 52.2946 10.326 52.381C10.4502 52.4675 10.481 52.6382 10.3946 52.7623L9.22185 54.4495C9.16869 54.5259 9.08341 54.5671 8.99668 54.5671Z" fill="white" fill-opacity="0.75"/>
<path d="M9.0277 58.0804C9.00457 58.0804 8.9816 58.0775 8.95912 58.0717C8.89487 58.055 7.38052 57.6406 6.84602 55.5346C6.30221 53.3921 7.43368 46.0919 8.52757 44.6858C8.63999 44.5413 8.7598 44.4465 8.88523 44.4028C8.92185 44.3849 8.96297 44.3746 9.00633 44.3746H9.04922C9.09274 44.3746 9.13386 44.3847 9.17031 44.4028C9.29575 44.4467 9.41556 44.5413 9.52798 44.686C10.6217 46.0921 11.7532 53.3923 11.2095 55.5348C10.675 57.6408 9.16051 58.0552 9.09643 58.0719C9.07379 58.0775 9.05082 58.0804 9.0277 58.0804ZM9.0277 44.943C8.78855 45.1357 8.21278 46.3817 7.69771 49.4329C7.25926 52.0302 7.13045 54.428 7.37698 55.3999C7.77175 56.9553 8.75386 57.4179 9.0277 57.5184C9.30153 57.4177 10.2836 56.9553 10.6784 55.3999C10.9251 54.428 10.7961 52.0302 10.3577 49.4329C9.84261 46.3815 9.26684 45.1357 9.0277 44.943Z" fill="white" fill-opacity="0.75"/>
<path d="M46.5069 61.5376H34.5062C34.3549 61.5376 34.2322 61.4149 34.2322 61.2636V49.8865C34.2322 49.7353 34.3549 49.6125 34.5062 49.6125C34.6575 49.6125 34.7802 49.7351 34.7802 49.8865V60.9897H46.2331V49.8865C46.2331 49.7353 46.3558 49.6125 46.507 49.6125C46.6583 49.6125 46.781 49.7351 46.781 49.8865V61.2636C46.7809 61.4149 46.6582 61.5376 46.5069 61.5376Z" fill="white" fill-opacity="0.75"/>
<path d="M55.647 50.011H48.312C48.1607 50.011 48.038 49.8883 48.038 49.7371C48.038 49.5858 48.1607 49.4632 48.312 49.4632H55.2776L52.9663 41.8418H28.1446L25.8334 49.4632H32.7415C32.8928 49.4632 33.0155 49.5858 33.0155 49.7371C33.0155 49.8883 32.8928 50.011 32.7415 50.011H25.4641C25.3774 50.011 25.2958 49.9699 25.2441 49.9002C25.1924 49.8305 25.1768 49.7406 25.202 49.6575L27.6794 41.4883C27.7144 41.3728 27.8209 41.2938 27.9415 41.2938H53.1695C53.2901 41.2938 53.3966 41.3728 53.4316 41.4883L55.909 49.6575C55.9342 49.7406 55.9186 49.8305 55.8669 49.9002C55.8153 49.9699 55.7337 50.011 55.647 50.011Z" fill="white" fill-opacity="0.75"/>
<path d="M54.4322 61.5376H26.546C26.3947 61.5376 26.272 61.4149 26.272 61.2636V49.7371C26.272 49.5858 26.3947 49.4633 26.546 49.4633C26.6973 49.4633 26.82 49.5858 26.82 49.7371V60.9896H54.1595L54.2081 49.736C54.2088 49.5852 54.3313 49.4633 54.4821 49.4633C54.4825 49.4633 54.4829 49.4633 54.4833 49.4633C54.6346 49.4639 54.7568 49.5871 54.756 49.7384L54.7062 61.2649C54.7054 61.4156 54.583 61.5376 54.4322 61.5376Z" fill="white" fill-opacity="0.75"/>
<path d="M42.6765 61.5376C42.5252 61.5376 42.4024 61.4149 42.4024 61.2636V54.2871H38.6089V61.1321C38.6089 61.2834 38.4862 61.4061 38.3349 61.4061C38.1836 61.4061 38.0609 61.2835 38.0609 61.1321V54.0131C38.0609 53.8618 38.1836 53.7391 38.3349 53.7391H42.6765C42.8277 53.7391 42.9503 53.8618 42.9503 54.0131V61.2636C42.9503 61.4149 42.8277 61.5376 42.6765 61.5376Z" fill="white" fill-opacity="0.75"/>
<path d="M32.133 57.3117H28.9393C28.788 57.3117 28.6653 57.1892 28.6653 57.0377V52.2705C28.6653 52.1192 28.788 51.9965 28.9393 51.9965H32.133C32.2843 51.9965 32.407 52.1192 32.407 52.2705V57.0377C32.4068 57.189 32.2841 57.3117 32.133 57.3117ZM29.2132 56.7637H31.859V52.5443H29.2132V56.7637Z" fill="white" fill-opacity="0.75"/>
<path d="M52.0416 57.3117H48.8481C48.6968 57.3117 48.5741 57.1892 48.5741 57.0377V52.2705C48.5741 52.1192 48.6968 51.9965 48.8481 51.9965H52.0416C52.1928 51.9965 52.3156 52.1192 52.3156 52.2705V57.0377C52.3154 57.189 52.1928 57.3117 52.0416 57.3117ZM49.1219 56.7637H51.7676V52.5443H49.1219V56.7637Z" fill="white" fill-opacity="0.75"/>
<path d="M63.8302 35.4161C63.6789 35.4161 63.5562 35.2934 63.5562 35.1421V31.205C63.5562 31.0537 63.6789 30.931 63.8302 30.931H66.4998C66.6511 30.931 66.7738 31.0537 66.7738 31.205V33.3798C66.7738 33.5311 66.6511 33.6536 66.4998 33.6536C66.3485 33.6536 66.2258 33.5311 66.2258 33.3798V31.479H64.104V35.1423C64.104 35.2934 63.9813 35.4161 63.8302 35.4161Z" fill="white" fill-opacity="0.75"/>
<path d="M66.3379 31.4788H63.9356C63.4886 31.4788 63.1248 31.1152 63.1248 30.6681V30.657C63.1248 30.2099 63.4886 29.8463 63.9356 29.8463H66.3379C66.7849 29.8463 67.1486 30.2099 67.1486 30.657V30.6681C67.1486 31.1152 66.7849 31.4788 66.3379 31.4788ZM63.9356 30.3942C63.7905 30.3942 63.6726 30.5121 63.6726 30.6572V30.6682C63.6726 30.8133 63.7905 30.9311 63.9356 30.9311H66.3379C66.4828 30.9311 66.6007 30.8133 66.6007 30.6682V30.6572C66.6007 30.5121 66.4828 30.3942 66.3379 30.3942H63.9356Z" fill="white" fill-opacity="0.75"/>
<path d="M60.952 61.5376H54.7884C54.6371 61.5376 54.5144 61.4149 54.5144 61.2636V55.5004C54.5144 55.3491 54.6371 55.2264 54.7884 55.2264H60.952C61.1033 55.2264 61.226 55.349 61.226 55.5004V61.2636C61.2258 61.4149 61.1033 61.5376 60.952 61.5376ZM55.0622 60.9896H60.678V55.7743H55.0622V60.9896Z" fill="white" fill-opacity="0.75"/>
<path d="M55.5682 61.5376C55.4169 61.5376 55.2942 61.4149 55.2942 61.2636V55.5004C55.2942 55.3491 55.4169 55.2264 55.5682 55.2264C55.7194 55.2264 55.842 55.349 55.842 55.5004V61.2636C55.842 61.4149 55.7193 61.5376 55.5682 61.5376Z" fill="white" fill-opacity="0.75"/>
<path d="M56.4778 61.5376C56.3265 61.5376 56.2038 61.4149 56.2038 61.2636V55.5004C56.2038 55.3491 56.3265 55.2264 56.4778 55.2264C56.6291 55.2264 56.7517 55.349 56.7517 55.5004V61.2636C56.7517 61.4149 56.629 61.5376 56.4778 61.5376Z" fill="white" fill-opacity="0.75"/>
<path d="M57.3875 61.5376C57.2362 61.5376 57.1135 61.4149 57.1135 61.2636V55.5004C57.1135 55.3491 57.2362 55.2264 57.3875 55.2264C57.5388 55.2264 57.6615 55.349 57.6615 55.5004V61.2636C57.6613 61.4149 57.5386 61.5376 57.3875 61.5376Z" fill="white" fill-opacity="0.75"/>
<path d="M58.297 61.5376C58.1457 61.5376 58.023 61.4149 58.023 61.2636V55.5004C58.023 55.3491 58.1457 55.2264 58.297 55.2264C58.4483 55.2264 58.571 55.349 58.571 55.5004V61.2636C58.571 61.4149 58.4483 61.5376 58.297 61.5376Z" fill="white" fill-opacity="0.75"/>
<path d="M59.2067 61.5376C59.0554 61.5376 58.9327 61.4149 58.9327 61.2636V55.5004C58.9327 55.3491 59.0554 55.2264 59.2067 55.2264C59.358 55.2264 59.4807 55.349 59.4807 55.5004V61.2636C59.4807 61.4149 59.358 61.5376 59.2067 61.5376Z" fill="white" fill-opacity="0.75"/>
<path d="M60.1163 61.5376C59.965 61.5376 59.8423 61.4149 59.8423 61.2636V55.5004C59.8423 55.3491 59.965 55.2264 60.1163 55.2264C60.2676 55.2264 60.3903 55.349 60.3903 55.5004V61.2636C60.3902 61.4149 60.2675 61.5376 60.1163 61.5376Z" fill="white" fill-opacity="0.75"/>
<path d="M12.0639 64C11.9127 64 11.7899 63.8775 11.7899 63.726V57.3597C11.7899 57.2085 11.9127 57.0858 12.0639 57.0858C12.2152 57.0858 12.3378 57.2083 12.3378 57.3597V63.726C12.3378 63.8773 12.2152 64 12.0639 64Z" fill="white" fill-opacity="0.75"/>
<path d="M12.0639 58.7949C11.9941 58.7949 11.9242 58.7684 11.8709 58.7152L11.2497 58.0979C11.1424 57.9912 11.1417 57.8178 11.2484 57.7105C11.355 57.6032 11.5285 57.6027 11.6358 57.7094L12.257 58.3267C12.3643 58.4334 12.3647 58.6068 12.2583 58.7141C12.2046 58.7679 12.1343 58.7949 12.0639 58.7949Z" fill="white" fill-opacity="0.75"/>
<path d="M12.0638 59.8997C12.0111 59.8997 11.9579 59.8846 11.911 59.853C11.7856 59.7685 11.7522 59.5983 11.8368 59.4728L12.5804 58.368C12.6649 58.2424 12.8352 58.2093 12.9606 58.2937C13.086 58.3781 13.1194 58.5484 13.035 58.6738L12.2913 59.7786C12.2382 59.8573 12.1518 59.8997 12.0638 59.8997Z" fill="white" fill-opacity="0.75"/>
<path d="M12.064 60.7365C10.6721 60.7365 9.5397 59.6042 9.5397 58.2122C9.5397 56.8204 10.6721 55.688 12.064 55.688C13.4558 55.688 14.588 56.8204 14.588 58.2122C14.588 59.604 13.4558 60.7365 12.064 60.7365ZM12.064 56.2358C10.9741 56.2358 10.0875 57.1224 10.0875 58.2122C10.0875 59.3019 10.9741 60.1886 12.064 60.1886C13.1537 60.1886 14.0402 59.3021 14.0402 58.2122C14.0402 57.1225 13.1537 56.2358 12.064 56.2358Z" fill="white" fill-opacity="0.75"/>
<path d="M29.8394 19.4437H24.1534C22.5774 19.4437 21.2951 18.1614 21.2951 16.5853C21.2951 15.1253 22.3824 13.9185 23.8081 13.7479C24.1006 12.4883 25.2459 11.5634 26.5575 11.5634C27.8986 11.5634 29.0333 12.4947 29.3135 13.7755C29.4865 13.7433 29.6625 13.7269 29.8394 13.7269C31.4154 13.7269 32.6977 15.0092 32.6977 16.5852C32.6977 18.1614 31.4154 19.4437 29.8394 19.4437ZM26.5574 12.1112C25.441 12.1112 24.4741 12.9423 24.3087 14.0444L24.2753 14.2675L24.05 14.2774C22.8124 14.332 21.8429 15.3456 21.8429 16.5853C21.8429 17.8593 22.8793 18.8958 24.1534 18.8958H29.8394C31.1133 18.8958 32.1498 17.8593 32.1498 16.5853C32.1498 15.3114 31.1134 14.2749 29.8394 14.2749C29.6121 14.2749 29.3869 14.3081 29.1701 14.3736L28.8537 14.4692L28.8185 14.1406C28.6946 12.9836 27.7226 12.1112 26.5574 12.1112Z" fill="white" fill-opacity="0.75"/>
<path d="M48.7742 25.6091H43.0883C41.5121 25.6091 40.2298 24.3269 40.2298 22.7508C40.2298 21.1748 41.5121 19.8925 43.0883 19.8925C43.2651 19.8925 43.4411 19.9089 43.6141 19.9412C43.8943 18.6605 45.0292 17.729 46.3701 17.729C47.6818 17.729 48.827 18.6539 49.1197 19.9136C50.5454 20.0841 51.6325 21.2909 51.6325 22.751C51.6325 24.3269 50.3502 25.6091 48.7742 25.6091ZM43.0883 20.4402C41.8143 20.4402 40.7778 21.4767 40.7778 22.7507C40.7778 24.0246 41.8143 25.0612 43.0883 25.0612H48.7742C50.0481 25.0612 51.0847 24.0246 51.0847 22.7507C51.0847 21.5111 50.1153 20.4974 48.8778 20.4428L48.6525 20.4328L48.6191 20.2097C48.4535 19.1076 47.4866 18.2765 46.3702 18.2765C45.2051 18.2765 44.2331 19.1489 44.1092 20.3058L44.0741 20.6345L43.7577 20.5388C43.5407 20.4734 43.3155 20.4402 43.0883 20.4402Z" fill="white" fill-opacity="0.75"/>
</svg>
